/* XPM */
static char *result[] = {
/* columns rows colors chars-per-pixel */
"48 48 208 2 ",
"   c gray2",
".  c #070707",
"X  c #0B0B0B",
"o  c #212123",
"O  c #343435",
"+  c #353536",
"@  c #393838",
"#  c #3F3F3F",
"$  c #404143",
"%  c #424444",
"&  c #464648",
"*  c #484A4C",
"=  c #4A4B4D",
"-  c #4E4F50",
";  c #4E4F51",
":  c #505153",
">  c #525355",
",  c #535456",
"<  c #565757",
"1  c #565759",
"2  c #575759",
"3  c #57585A",
"4  c #57585B",
"5  c #58595B",
"6  c #5B5B5C",
"7  c #5A5C5E",
"8  c #5D5F5F",
"9  c #5E5F61",
"0  c #5F6061",
"q  c #5F6062",
"w  c #606163",
"e  c gray39",
"r  c #616264",
"t  c #616364",
"y  c #626365",
"u  c #626465",
"i  c #636466",
"p  c #646565",
"a  c #656667",
"s  c #656668",
"d  c #676768",
"f  c #66686A",
"g  c #67686A",
"h  c #67686B",
"j  c #696868",
"k  c #696A6C",
"l  c #6A6B6D",
"z  c #6B6B6D",
"x  c #6C6D6F",
"c  c #6D6E70",
"v  c #6E6F70",
"b  c #6E6F71",
"n  c #707173",
"m  c #727375",
"M  c #757374",
"N  c #737477",
"B  c #747577",
"V  c #777676",
"C  c #757678",
"Z  c #767779",
"A  c gray47",
"S  c #787879",
"D  c #7B7B7C",
"F  c #7A7B7D",
"G  c #7C7D7E",
"H  c #7C7D7F",
"J  c #7D7E7F",
"K  c #7D7E81",
"L  c #7E7F81",
"P  c #7E7F83",
"I  c #7F8083",
"U  c #808183",
"Y  c #818286",
"T  c #848587",
"R  c #848787",
"E  c #838488",
"W  c #858688",
"Q  c #87888A",
"!  c #87888C",
"~  c #8B8B8D",
"^  c #898A8E",
"/  c #8A8B8E",
"(  c #8B8D8E",
")  c #8B8C90",
"_  c #8C8D90",
"`  c #8D8E91",
"'  c #8D8E92",
"]  c #8F8F92",
"[  c #8F9093",
"{  c #909293",
"}  c #919296",
"|  c #939397",
" . c #939498",
".. c #949599",
"X. c #979799",
"o. c #95969A",
"O. c #96979A",
"+. c #96979B",
"@. c #97989C",
"#. c #97989D",
"$. c #98999D",
"%. c #999A9C",
"&. c #999A9D",
"*. c #999A9E",
"=. c #9B9C9F",
"-. c #9D9EA1",
";. c #9E9EA1",
":. c #9E9FA1",
">. c #9D9EA2",
",. c #9E9FA3",
"<. c #9F9FA3",
"1. c #9FA0A3",
"2. c #9FA0A4",
"3. c #A0A2A6",
"4. c #A2A3A7",
"5. c #A2A6A7",
"6. c #A3A4A8",
"7. c #A4A5A9",
"8. c #A5A6AA",
"9. c #A6A6AB",
"0. c #A6A7AB",
"q. c #A6A7AC",
"w. c #A6A8AC",
"e. c #A7A8AC",
"r. c #A8A9AD",
"t. c #A9A9AD",
"y. c #A8AAAE",
"u. c #A9AAAE",
"i. c #AAABAF",
"p. c #ABABAF",
"a. c #ACADB1",
"s. c #ADAEB2",
"d. c #AFAEB3",
"f. c #AEAFB3",
"g. c #AFB0B3",
"h. c #AEB0B4",
"j. c #AFB0B4",
"k. c #B0B1B5",
"l. c #B1B2B6",
"z. c #B2B3B6",
"x. c #B2B3B7",
"c. c #B3B4B8",
"v. c #B4B5B8",
"b. c #B4B5B9",
"n. c #B5B6BA",
"m. c #B6B7BB",
"M. c #B4B8BB",
"N. c #B7B8BC",
"B. c #B8B8BA",
"V. c #B9BABE",
"C. c #B9BABF",
"Z. c #BABBBF",
"A. c #BCBCBE",
"S. c #BBBDC1",
"D. c #BEBFC1",
"F. c #BEBFC2",
"G. c #BEBFC3",
"H. c #BCC0C3",
"J. c #BEC0C4",
"K. c #BFC0C4",
"L. c #BFC0C5",
"P. c #C0C1C5",
"I. c #C1C2C6",
"U. c #C2C3C7",
"Y. c #C0C4C7",
"T. c #C3C4C6",
"R. c #C2C3C8",
"E. c #C3C4C8",
"W. c #C4C5C9",
"Q. c #C5C5C9",
"!. c #C6C6C8",
"~. c #C6C7CB",
"^. c #C7C8CC",
"/. c #C8C9CB",
"(. c #C8C9CD",
"). c #C9CACE",
"_. c #CACBCF",
"`. c #CACCCD",
"'. c #CBCCD0",
"]. c #CBCED1",
"[. c #CFCFD1",
"{. c #CCCFD3",
"}. c #CECFD3",
"|. c #CECFD4",
" X c #D1D2D3",
".X c #D1D2D6",
"XX c #D2D3D7",
"oX c #D1D4D8",
"OX c #D3D4D8",
"+X c #D3D7DB",
"@X c #D4D5D9",
"#X c #D4D6DA",
"$X c #D8DADF",
"%X c #DCDCDE",
"&X c #D8DBE0",
"*X c #D9DCE1",
"=X c #DDDEE3",
"-X c #DFE0E1",
";X c #DFE0E5",
":X c #E1E2E4",
">X c #E2E3E7",
",X c #E4E6E6",
"<X c #E4E6EA",
"1X c #E7E8EB",
"2X c #ECEDF1",
"3X c gray99",
"4X c #FEFEFE",
"5X c None",
/* pixels */
"5X5X5X5X5X5X5X5X5X5X5X5X5X5X5X5X5X5X5X5X5X5X5X5X5X5X5X5X5X5X5X5X5X5X5X5X5X5X5X5X5X5X5X5X5X5X5X5X",
"5X5X5X5X5X5X5X5X5X5X5X5X5X5X5X5X5X5X5X5X5X5X5X5X5X5X5X5X5X5X5X5X5X5X5X5X5X5X5X5X5X5X5X5X5X5X5X5X",
"5X5X5X5X5X5X5X5X5X5X5X5X5X5X5X5X5X5X5X5X5X5X5X5X5X5X5X5X5X5X5X5X5X5X5X5X5X5X5X5X5X5X5X5X5X5X5X5X",
"5X5X5X5X5X5X5X5X5X5X5X5X5X5X5X5X5X5X5X5X5X5X5X5X5X5X5X5X5X5X5X5X5X5X5X5X5X5X5X5X5X5X5X5X5X5X5X5X",
"5X5X5X5X5X5X5X5X5X5X5X5X5X5X5X5X5X5X5X5X5X5X5X5X5X5X5X5X5X5X5X5X5X5X5X5X5X5X5X5X5X5X5X5X5X5X5X5X",
"5X5X5X5X5X5Xv 5X5X5X5X5X5X5X5X5X5X5X5X5X5X5X5X5X5X5X5X5X5X5X5X5X5X5X5X5X5X5X5X5X5X5X5X5X5X5X5X5X",
"5X5X5X5X5X5XM.@X5X5X5X5X5X5X5X5X5X5X5X5X5X5X5X5X5X5X5X5X5X5X5X5X5X5X5X5X5X5X5X5X5X5X5X5X5X5X5X5X",
"5X5X5X5X5X5Xa G.-X5X5X5X5X5X5X5X5X5X5X5X5X5X5X5X5X5X5X5X5X5X5X5X5X5X5X5X5X5X5X5X5X5X5X5X5X5X5X5X",
"5X5X5X5X5X5X5Xu.~.5X5X5X5X5X5X5X5X5X5X5X5X5X5X5X5X5X5X5X5X5X5X5X5X5X5X5X5X5X5X5X5X5X5X5X5X5X5X5X",
"5X5X5X5X5X5X5X5XN.$X5X5X5X5X5X5X5X5X5X5X5X5X5X5X5X5X5X5X5X5X5X5X5X5X5X5X5X5X5X5X5X5X5X5X5X5X5X5X",
"5X5X5X5X5X5X5X5X^ P.%X5X5X5X5X5X5X5X5X5X5X5X5X5XK.l.x.!.5X5X5X5X5X5X5X5X5X5X5X5X5X5X5X5X5X5X5X5X",
"5X5X5X5X5X5X5X5X5Xj.(.5X5X5X5X5X5X5X5X5X5X5X5X+.e.r.a.j.f.h.<.Q.5X5X5X5X5X5X5X5X5X5X5X5X5X5X5X5X",
"5X5X5X5X5X5X5X5X5X5 V.>X5X5X5X5X5X5X5X5X5X5X7 Q Z _ o.-.4.0.u.4.s.j.l.L.5X5X5X5X5X5X5X5X5X5X5X5X",
"5X5X5X5X5X5X5X5X5X5X<.P.5X5X5X5X5X5X5X5X5X6 T.5X5X5X5X5X5Xf W  .>.4.e.y.f.f.5X5X5X5X5X5X5X5X5X5X",
"5X5X5X5X5X5X5X5X5X5Xd k.).5X5X5X5X5X5X5X5X} 5X5X5X5X5X5X5X5X5X5X5X5X- k ) 5X5X5X5X5X5X5X5X5X5X5X",
"5X5X5X5X5X5X5X5X5X5X5XL Z.<X5X5X5X5X5X5Xb 5X5X5X5X5X5X5X5X5X5X5XC E ` g 5X5X5X5X5X5X5X5X5X5X5X5X",
"5X5X5X5X5X5X5X5X5X5X5X5X8.U.5X5X5X5X5X4 D.5X5X5X5X5X5X5X5X5Xl s @.u 5X5X5X5X5X5X5X5X5X5X5X5X5X5X",
"5X5X5X5X5X5X5X5X5X5X5X5X3 c._.5X5X5Xi P 5X5X5X5X5X5X5X5X5XZ I 0 5X5X5X5X5X5X5X5X5X5X5X5X5X5X5X5X",
"5X5X5X5X5X5X5X5X5X5X5X5X5X..Z.=X5X5Xb [.5Xe 5X5X5X5X5X5X~ h 5X5X5X5X5X5X5X5X5X5X5X5X5X5X5X5X5X5X",
"5X5X5X5X5X5X5X5X5X5X5X5X5X& i.I.5Xy 8.5X5X5XA 5X5X5X5X5X4.5X5X5X5X5X5X5X5X5X5X5X5X5X5X5X5X5X5X5X",
"5X5X5X5X5X5X5X5X5X5X5X5X5X5XZ b.'.k 5X5X5XS m 5.4X5X5XK 5X5X5X5X5X5X5X5X5X5X5X5X5X5X5X5X5X5X5X5X",
"5X5X5X5X5X5X5X5X5X5X5X5X5X5XR ,.S.~.;.5Xo : Z Y E. X( z.5X5X5X5X5X5X5X5X5X5X5X5X5X5X5X5X5X5X5X5X",
"5X5X5X5X5X5X5X5X5X. 5X# V 5X5X1 9.K.' O + 3 B t.K.< F 5X5X5X5X5X5X5X5X5X5X5X5X5X5X5X5X5X5X5X5X5X",
"5X5X5X5X5X5X5X5X5X5X5X5X5X5X5X= *.Z.c.w ; g ]   g.x `.5X5X5X5X5X5X5X5X5X5X5X5X5X5X5X5X5X5X5X5X5X",
"5X5X5X5X5X5X5X5X5X5X5X5X5X5X5X, ,.N.l.l r G c.O.q / 5X5X5X5X5X5X5X5X5X5X5X5X5X5X5X5X5X5X5X5X5X5X",
"5X5X5X5X5X5X5X5X5X5X5X5X5X5XE 9 ,.b.8.b Z p.C.A.r 5X5X5X5X5X5X5X5X5X5X5X5X5X5X5X5X5X5X5X5X5X5X5X",
"5X5X5X5X5X5X5X5X5X5X5X5X5Xj s U 4.l.&.F 2.l.^.% ~.5X5X5X5X5X5X5X5X5X5X5X5X5X5X5X5X5X5X5X5X5X5X5X",
"5X5X5X5X5X5X5X5X5X5X5X5X5X5X> | 7.b.=.O.k.m.W.j.5X5X5X5X5X5X5X5X5X5X5X5X5X5X5X5X5X5X5X5X5X5X5X5X",
"5X5X5X5X5X5X5X5X5X5X5X5X@ z T $.6.x.u.s.3.f.n.G.XX,X5X5X5X5X5X5X5X5X5X5X5X5X5X5X5X5X5X5X5X5X5X5X",
"5X5X5X5X5X5X5X5X5X5X5X5X5X3X{ 2.0.f.b.B.5X5XN d.F.].>X5X5X5X5X5X5X5X5X5X5X5X5X5X5X5X5X5X5X5X5X5X",
"5X5X5X5X5X5X5X5X5X5X5X5X5Xn X.4.w.s.v.5X5X5X5X* 6.V./.*X5X5X5X5X5X5X5X5X5X5X5X5X5X5X5X5X5X5X5X5X",
"5X5X5X5X5X5X5X5XX 5X5X5X8 ! %.-.7.u.5X5X5X5X5X5X5X[ b.U.#X5X5X5X5X5X5X5X5X5X5X5X5X5X5X5X5X5X5X5X",
"5X5X5X5X5X5X5X5X5X5X5X5X$ W } @.#.5X5X5X5X5X5X5X5X5Xq s.J.}.2X5X5X5X5X5X5X5X5X5X5X5X5X5X5X5X5X5X",
"5X5X5X5X5X5X5X5X5X5X5X5Xt c J 5X5X5X5X5X5X5X5X5X5X5X5X5X1.Z.^.&X5X5X5X5X5X5X5X5X5X5X5X5X5X5X5X5X",
"5X5X5X5X5X5X5X5X5X5X5X5XM 5X5X5X5X5X5X5X5X5X5X5X5X5X5X5X5XF b.Y.+X5X5X5X5X5X5X5X5X5X5X5X5X5X5X5X",
"5X5X5X5X5X5X5X5X5X5X5X5X5X5X5X5X5X5X5X5X5X5X5X5X5X5X5X5X5X5Xp i.G.}.1X5X5X5X5X5X5X5X5X5X5X5X5X5X",
"5X5X5X5X5X5X5X5X5X5X5X5X5X5X5X5X5X5X5X5X5X5X5X5X5X5X5X5X5X5X5X5Xo.V.(.oX5X5X5X5X5X5X5X5X5X5X5X5X",
"5X5X5X5X5X5X5X5X5X5X5X5X5X5X5X5X5X5X5X5X5X5X5X5X5X5X5X5X5X5X5X5X5X2 x.E.OX5X5X5X5X5X5X5X5X5X5X5X",
"5X5X5X5X5X5X5X5X5X5X5X5X5X5X5X5X5X5X5X5X5X5X5X5X5X5X5X5X5X5X5X5X5X5X5Xq.F.{.:X5X5X5X5X5X5X5X5X5X",
"5X5X5X5X5X5X5X5X5X5X5X5X5X5X5X5X5X5X5X5X5X5X5X5X5X5X5X5X5X5X5X5X5X5X5X5XH V.^.;X5X5X5X5X5X5X5X5X",
"5X5X5X5X5X5X5X5X5X5X5X5X5X5X5X5X5X5X5X5X5X5X5X5X5X5X5X5X5X5X5X5X5X5X5X5X5X5Xk.R..X5X5X5X5X5X5X5X",
"5X5X5X5X5X5X5X5X5X5X5X5X5X5X5X5X5X5X5X5X5X5X5X5X5X5X5X5X5X5X5X5X5X5X5X5X5X5X5X:.H.|.5X5X5X5X5X5X",
"5X5X5X5X5X5X5X5X5X5X5X5X5X5X5X5X5X5X5X5X5X5X5X5X5X5X5X5X5X5X5X5X5X5X5X5X5X5X5X5XD V.5X5X5X5X5X5X",
"5X5X5X5X5X5X5X5X5X5X5X5X5X5X5X5X5X5X5X5X5X5X5X5X5X5X5X5X5X5X5X5X5X5X5X5X5X5X5X5X5X5X5X5X5X5X5X5X",
"5X5X5X5X5X5X5X5X5X5X5X5X5X5X5X5X5X5X5X5X5X5X5X5X5X5X5X5X5X5X5X5X5X5X5X5X5X5X5X5X5X5X5X5X5X5X5X5X",
"5X5X5X5X5X5X5X5X5X5X5X5X5X5X5X5X5X5X5X5X5X5X5X5X5X5X5X5X5X5X5X5X5X5X5X5X5X5X5X5X5X5X5X5X5X5X5X5X",
"5X5X5X5X5X5X5X5X5X5X5X5X5X5X5X5X5X5X5X5X5X5X5X5X5X5X5X5X5X5X5X5X5X5X5X5X5X5X5X5X5X5X5X5X5X5X5X5X",
"5X5X5X5X5X5X5X5X5X5X5X5X5X5X5X5X5X5X5X5X5X5X5X5X5X5X5X5X5X5X5X5X5X5X5X5X5X5X5X5X5X5X5X5X5X5X5X5X"
};
