/* XPM */
static char *result[] = {
/* columns rows colors chars-per-pixel */
"48 48 75 1 ",
"  c #010000",
". c #0B0606",
"X c #0D0809",
"o c #1A0F0D",
"O c #231315",
"+ c #24151F",
"@ c #331E1A",
"# c #37211C",
"$ c #3E251F",
"% c #271121",
"& c #432622",
"* c #472A24",
"= c #4B2C26",
"- c #502E27",
"; c #55322B",
": c #5A342D",
"> c #5E3536",
", c #61372F",
"< c #62392F",
"1 c #633730",
"2 c #653931",
"3 c #6D3D45",
"4 c #723C43",
"5 c #743D4C",
"6 c #6F335C",
"7 c #7C3E55",
"8 c #7C3966",
"9 c #7E3A68",
"0 c #754246",
"q c #7A4449",
"w c #784367",
"e c #804652",
"r c #834A55",
"t c #83435C",
"y c #894E5B",
"u c #8B505E",
"i c #844062",
"p c #80416C",
"a c #8D456C",
"s c #8F4375",
"d c #904374",
"f c #95447B",
"g c #9B4D7C",
"h c #975773",
"j c #9E5A75",
"k c #A55D7D",
"l c #9C4A81",
"z c #A04D85",
"x c #A24F88",
"c c #A75886",
"v c #A5528B",
"b c #A9558E",
"n c #AB5A8D",
"m c #AC5790",
"M c #AE5993",
"N c #B15C95",
"B c #B65F9A",
"V c #AE6389",
"C c #B2658D",
"Z c #B56494",
"A c #B7609B",
"S c #B9629E",
"D c #BB6A98",
"F c #BD65A1",
"G c #C36BA7",
"H c #C56DAA",
"J c #C96FAC",
"K c #C772A6",
"L c #CC72AF",
"P c #CE73B1",
"I c #D176B5",
"U c #D378B6",
"Y c #D77BBA",
"T c #D87BBA",
"R c None",
/* pixels */
"RRRRRRRRRRRRRRRRRRRRRRRRRRRRRRRRRRRRRRRRRRRRRRRR",
"RRRRRRRRRRRRRRRRRRRRRRRRRRRRRRRRRRRRRRRRRRRRRRRR",
"RRRRRRRRRRRRRRRRRRRRRRRRRRRRRRRRRRRRRRRRRRRRRRRR",
"RRRRRRRRRRRRRRRRRffRRRRRvYYRR2zSRRRRRRRRRRRRRRRR",
"RRRRRRRRRRRRRRRRBllRRRRtASURR2FLRRnRRRRRRRRRRRRR",
"RRRRRRRRRRRRRRRRUlzURRaHYPYYRRYFHPUbYZRRRRRRRRRR",
"RRRRRRfRRRRRRRRRYYYYyRRYTYTYRRfSYYYYfiRRRRRRRRRR",
"RRRRRRiRfRRRRHRrHAFYyRRUFYYFRRRSUYYYAcRRRRRRRRRR",
"RRRRRRIPPfRfYUPKULGSPfAnPYMPYYRSzmFlzlIsdRRRRRRR",
"RRRRRRPUTxRfYTYPTTLALvFvYYMYUPRFflSfllIlxRRRRRRR",
"RRRR2KSJYARSFYYFYYIAAYYRRYYFLFlHHLRRAHFYYGRRRRRR",
"R2222LTYYfRYxYYYYTLAYYYxRYTzYTfAYYYRYYlYYYRRRRRR",
"RRRRRfPUzRRRRRsbFPTFfPPzRiGmYYGMPPPRsNYbYvRRRRRR",
"RRRRMRSJSAASRR2FTFAHFASRuYFYHBBBBSRR:5JABUlRRRRR",
"RRRRSRYTYYYzYR2vYzfAYYYRuTYYBfYYYPRR:RRffLfRRRRR",
"RRRRGRxFPHzPgazTYYYVRRRgTTYYBxlxglH5YYPPYYYUYRRR",
"RRRRRxYYxlYYPBYYTYYkKTYxYYYLBYYYxxYxYYxxYYPBYRRR",
"RRRRYPYYPPYYUUYlzPYZlYYPzzPYUYPSllYlxFlPYbYPYRRR",
"RRRRFTfAzPfPPffYBPPBYffPYYzYYYzYYYYYYYYffPYYYRRR",
"RRRRRYAHFIBPBBBYBMBBPBBBYYFBBBFYYIHYYHUMfNBGYRRR",
"RRRRRRvFyaYYlFxmPPPUvYFHYYYPLPYYmvUYlAUYLPRRRRRR",
"RRRRRRRSrqTLmFlmUYYLlYFPUPUTUJYUvbIPxFYUPURRRRRR",
"RRRRRRRRZgTSYHBUHFFDtYYYIBBUvfBxPYHBYHPUBPRRRRRR",
"RRRRRRRRRRzIPBJYYPGFqlFYYTqPffLPvbYmYUYYYmYRR1RR",
"RRRRRRRRRRzPGBYUUPHFqanIPYyLllYYllUmYYYPLvURR,RR",
"RRRRRRRRRGYFBBBUHzlY4247tjhwHYUHFvpUBAPlAIIAVRRR",
"RRRRRRRRRYYzYBfYYzzYq22222;%YYLBYL6PffPlTYYYYRRR",
"RRRRRRRRIPzPPBfUSPYn>1221::O88PMRRRsUUqULLbBfRRR",
"RRRRRRRRRYYYfRRRRUP7:;:2:22*  f9RRRRRRRRffTAfRRR",
"RRRRRRRRRYYNRRRRRe3$,1:2,:2:O %RRRRRRRRRRfURRRRR",
"RRRRRRRRRRYRRRRRRRR&,222<:;2>:RRRRRRRRRRRRRRRRRR",
"RRRRRRRRRRRRRRRRRRR*:2:,22:;22-RRRRRRRRRRRRRRRRR",
"RRRRRRRRRRRRRRRRRRRR,2::2222222#RRRRRRRRRRRRRRRR",
"RRRRRRRRRRRRRRRRRRRR222:22:;:22#RRRRRRRRRRRRRRRR",
"RRRRRRRRRRRRRRRRRRRR:22:22;:::2=RRRRRRRRRRRRRRRR",
"RRRRRRRRRRRRRRRRRRRRR22::2::::2:RRRRRRRRRRRRRRRR",
"RRRRRRRRRRRRRRRRRRRRR,,::1::::1::RRRRRRRRRRRRRRR",
"RRRRRRRRRRRRRRRRRRRRRR#:::2,::2,:RRRRRRRRRRRRRRR",
"RRRRRRRRRRRRRRRRRRRRRRR-,;,,;::::RRRRRRRRRRRRRRR",
"RRRRRRRRRRRRRRRRRRRRRRX-2::::22::RRRRRRRRRRRRRRR",
"RRRRRRRRRRRRRRRRRRRRR$*222,222:1:RRRRRRRRRRRRRRR",
"RRRRRRRRRRRRRRRRRRRR;::222:222:2:RRRRRRRRRRRRRRR",
"RRRRRRRRRRRRRRRRRRR:,2221:22,:22RRRRRRRRRRRRRRRR",
"RRRRRRRRRRRRRRRRRRo:222::222:22RRRRRRRRRRRRRRRRR",
"RRRRRRRRRRRRRRRRR-=22:::12::22-RRRRRRRRRRRRRRRRR",
"RRRRRRRRRRRRRRRR#122:2221;:2222RRRRRRRRRRRRRRRRR",
"RRRRRRRRRRRRRRR.&122:2121::2222RRRRRRRRRRRRRRRRR",
"RRRRRRRRRRRRRRR #::::::::::::::RRRRRRRRRRRRRRRRR"
};
