/* XPM */
static char *_6f4b3eed0be4571e0cfda0320ffea2dRRegOOT81rw0BVOD[] = {
/* columns rows colors chars-per-pixel */
"48 48 185 2 ",
"   c None",
".  c #32201D",
"X  c #39221F",
"o  c #342522",
"O  c #3A2622",
"+  c #352A27",
"@  c #3D2A26",
"#  c #362D29",
"$  c #3A322E",
"%  c #3D3531",
"&  c #432521",
"*  c #432E29",
"=  c #492E29",
"-  c #482925",
";  c #512A25",
":  c #5B2F2A",
">  c #512D28",
",  c #44312C",
"<  c #49332E",
"1  c #5C312C",
"2  c #51332D",
"3  c #433632",
"4  c #493630",
"5  c #453935",
"6  c #4C3B35",
"7  c #4C3E38",
"8  c #503630",
"9  c #523B35",
"0  c #523E38",
"q  c #5A3F39",
"w  c #66342F",
"e  c #633631",
"r  c #663A34",
"t  c #6B3A34",
"y  c #653F38",
"u  c #723E38",
"i  c #4A403B",
"p  c #53423C",
"a  c #5C433D",
"s  c #63433C",
"d  c #69433C",
"f  c #72443D",
"g  c #79453F",
"h  c #4F4540",
"j  c #5E4741",
"k  c #564944",
"l  c #5A4B45",
"z  c #5A4E49",
"x  c #554640",
"c  c #5D514B",
"v  c #604740",
"b  c #654B43",
"n  c #6D4D44",
"m  c #684F48",
"M  c #794740",
"N  c #754C43",
"B  c #7D4A42",
"V  c #704F48",
"C  c #6F5046",
"Z  c #60544E",
"A  c #6C554D",
"S  c #73544C",
"D  c #7D574E",
"F  c #7D594F",
"G  c #655650",
"H  c #665B54",
"J  c #6A5C55",
"K  c #6D5F59",
"L  c #765A52",
"P  c #7B5B53",
"I  c #6D6059",
"U  c #73625C",
"Y  c #7C635C",
"T  c #7D6660",
"R  c #766861",
"E  c #7E6A63",
"W  c #814E46",
"Q  c #845047",
"!  c #83534A",
"~  c #835A4F",
"^  c #845C52",
"/  c #8B5D52",
"(  c #8C6256",
")  c #83645B",
"_  c #8E6559",
"`  c #8D685D",
"'  c #926256",
"]  c #946559",
"[  c #986759",
"{  c #936B5D",
"}  c #9D6B5C",
"|  c #A16E5E",
" . c #826B64",
".. c #816F68",
"X. c #936E61",
"o. c #986F60",
"O. c #887066",
"+. c #82726B",
"@. c #89776E",
"#. c #957063",
"$. c #9C7363",
"%. c #8C7C73",
"&. c #957D70",
"*. c #A47363",
"=. c #AD7463",
"-. c #A67867",
";. c #AC7967",
":. c #A57A69",
">. c #AB7B6A",
",. c #B17966",
"<. c #B47D69",
"1. c #8F8176",
"2. c #908277",
"3. c #95887C",
"4. c #9A877A",
"5. c #A7806F",
"6. c #AA816F",
"7. c #B4816D",
"8. c #BB846E",
"9. c #AD8573",
"0. c #AF8874",
"q. c #A08778",
"w. c #B18572",
"e. c #BD8670",
"r. c #B38A75",
"t. c #BB8C74",
"y. c #B38C7B",
"u. c #BC8E7B",
"i. c #BD927C",
"p. c #C48C76",
"a. c #C78E78",
"s. c #C98F78",
"d. c #C59077",
"f. c #C4937B",
"g. c #CA947C",
"h. c #CD997E",
"j. c #A28D80",
"k. c #AF9283",
"l. c #BD9583",
"z. c #BF9886",
"x. c #C39682",
"c. c #CF9581",
"v. c #C29886",
"b. c #CA9A83",
"n. c #C39A89",
"m. c #CC9E8C",
"M. c #D29683",
"N. c #D49D83",
"B. c #D69C89",
"V. c #DB9E8A",
"C. c #D6A184",
"Z. c #D9A386",
"A. c #D5A28C",
"S. c #DDA58A",
"D. c #DFA88B",
"F. c #DAA692",
"G. c #DCA996",
"H. c #DDAB99",
"J. c #D4A593",
"K. c #E0A58E",
"L. c #E1A88E",
"P. c #E2A791",
"I. c #E4AA93",
"U. c #E9AE94",
"Y. c #E4AC9A",
"T. c #E9AE9A",
"R. c #EAB095",
"E. c #E5B29F",
"W. c #ECB399",
"Q. c #EEB39D",
"!. c #EFB59E",
"~. c #EDB29D",
"^. c #F0B69F",
"/. c #EEB5A1",
"(. c #E8BAA9",
"). c #F0B7A1",
"_. c #F2BAA7",
"`. c #F2B9A5",
"'. c #F2B9A5",
"]. c #F3BDA9",
"[. c #F3BDAA",
"{. c #F5C1AE",
"}. c #F5C5B2",
"|. c #F5C9B7",
" X c #F5CCBB",
/* pixels */
"                                            5 $ + $ 5                                           ",
"                              7 z $ T z . p U z n v s s c ; , 5                                 ",
"                        7 c i z k O p j J f C P ^ Y ( ) { ( S C b 4 5                           ",
"                    i 3 $ 3 < l U m j C ) | } o.:.6.:.0.6.>.:.o.( F f 8 ,                       ",
"                  o # $ i % Z p 9 ^ t.g.h.f.h.h.d.8.w.w.7.=.t.t.0.:.| *./ 6 ,                   ",
"                . . . p l c C r.p.t.g.g.C.h.S.Z.S.C.L.S.Z.C.Z.S.M.g.p.8.e.0.{ , %               ",
"              $ . + , I Y 4.t.t.p.a.g.g.h.D.D.D.D.U.L.L.I.D.U.R.L.S.C.C.C.C.h.b.6 $             ",
"            6 . + i I 1.Y 7.r.t.p.d.N.C.D.D.D.L.S.D.L.R.I.L.R.R.R.R.I.K.D.Z.S.h.h.P 0 5         ",
"          5 . + $ c 1.E 5.e.e.e.g.h.h.C.Z.Z.S.U.U.W.R.W.~.U.R.W.W.W.U.U.L.I.K.N.h.g.` p R       ",
"          5 o . E +.U y.r.t.t.7.p.g.C.C.C.S.D.U.W.~.R.!.R.~./.!.^.^.W.R.L.I.L.L.C.C.v.H H       ",
"        % % # + R 3.3.-.0.g.e.7.7.h.S.h.N.S.G.Y./._._.{.]._.!._._._.W.!.U.U.I.U.D.h.h.0.z I     ",
"        c % . z U 3.y.r.t.t.e.8.7.g.Z.D.C.S.L.R.~.].}.].].|._.|.[.[.].).`.^.T.U.L.C.C.f.@.I     ",
"        H $ $ E I %.n.v.i.t.8.8.8.p.h.L.C.C.S.U.Q._.{.W.}. X X X{.|.`.{.`.`.^.W.I.C.h.Z.z.2.c   ",
"        p $ % I 2.k.4.<.t.7.8.8.p.d.g.h.L.S.L.U.Q.W._.}.].]. X|.`.`._.{.^.^.^.L.R.D.C.h.y.E E   ",
"        z l c R R 2.l.w.8.e.7.e.p.p.d.h.K.L.T.R.`.Q.).[.[.|.{.].`.^.^.`.W.!.!.R.D.D.D.h.t.3.j.  ",
"        l 5 $ +.+.j.0.0.;.8.8.8.p.s.h.h.S.S.U.Q.T.T.Q._.}._._._.^.!._.!.R.R.R.R.U.L.L.L.r.y.1.  ",
"      K k +.6 U 2.X./ ] =.=.e.p.8.p.p.h.S.K.P.U.I.U.Y.T.T.`.[.^.`./.^.`.W.R.U.I.K.D.D.S.t.0.3.U ",
"      c 5 H $ U +.{ { -.,.=.e.b.p.p.p.h.C.S.G.T.W.U.Q.~.).}.[.{.`.`._.).).W.U.W.R.Z.D.C.t.r.%.I ",
"  r.M.0 7 0 z H c ` ( | } -.<.g.t.e.h.L.S.U.T.P.S.T.I.T.I.).T.[._.].].{._.U.P.T.P.U.D.D.e.0.T I ",
"G O s <.' 4 0 G S P / } *.-.>.7.d.s.h.Z.G.Y.G.Z.H.G.K.H.Y.P.T._.`./.~._.].D.S.F.A.G.D.S.g.0.H U ",
"J w . O / s O J H ^ { :.-.-.-.-.7.7.a.v.t.u.*.r.>.' ( -.<.y.c.G.P.Y.~.Y.G.B.G.A.H.H.G.G.f.0. .R ",
"  B ; e e , 0 +...X.$.-.-.*.:.' / ' ' } } $.' / N = ; ; M e =.e.F.N.V.M.x./ / X.~ 0.:.l.v.r...c ",
"  ' t g 4 * x Y ..#.$.-.-.-.<.[ f f N ~ { f P ` $.! t t : ; B g.D.M.M.e ; - : > a S { :.^ :.U   ",
"  $.! B ; 7 , P  .:.$.{ -.8.g.N.A.W w ; g E 7 . 7 %.W B g w w 8.V.L.h.: g M N <  .@.B ) C { J   ",
"  z =.] B ; n P +.2.:.*.*.w.N.G.D.G.G.G.e.E.T.(.Y.H.M./.J.=.t e.C.L.=.| <.>.K h H d g B | :.    ",
"    e.e.=.' ^ T P O.:.$.*.e.g.C.H.D.P.P.Y.T./._.[.P.P.G.G.x.<.p.K.).F.G.M.N.H.Y.G.A.B.F.A.x.    ",
"    1 -.e.e ^ T T  .X.X.X.*.c.M.I.I.P.U.T._._._.Y.Y.T./.I.N.a.N.I.[.M.Y.T.Y.Q.Y.G.G.F.G.H.F.    ",
"    k = g.=.6 E ....T  .^ $.,.a.c.U.T.T.P.).T.)./.Y._.[.V.M.s.M.T.}.Z.V./.P.F.P.P.P.R.R.G.m.    ",
"      ~ w e & A T E L S Y ( | <.e.c.M.F.T.^.T.{.}.[.[.[.V.p.p.N.T.{.S.g.Q.).Y.P.D.I.R.R.F.h.    ",
"        e.-.t L E E  .V T ] ' =.e.p.s.M.G.T._._.|._.{.[.M.8.g.V.R.].I.g.I.`.T.T.T.P.D.S.N.-.    ",
"        ^ } ~ L T X.] P L ^ ~ [ =.=.a.h.V.I.T.T.T.).U.c.,.=.8.N.T._.U.M.V.T./.T.S.K.V.g.f. .    ",
"            3 L ..E ' ^ P P / | } =.s.M.V.K.I.T.T.U.B.=.g.M.i.a.P.{.`.V.g.P.I.P.V.S.M.a.'       ",
"              T Y T ( ' V ^ | ;.] | 8.8.M.V.K.P.T.V.M.} e.8.n.a.F.}.`.G.b.P.V.V.V.V.a.0.#.      ",
"               .T P ^ ( ) S o.9.| ,.8.p.c.V.K.I.T.P.M.u w 1 Q / t.a.B.x.*.P.M.B.M.s.d.<.X.      ",
"              H E P P (  .L P -.| =.e.a.M.B.Y.I.T.T.[.<.e 8 . . D N B : *.I.P.M.M.c.e.#.        ",
"              U L L S P ^ ^ B / | :.s.a.p.M.P.N.T.U.T.T.c.p.L ; X ; b 7.K.I.V.M.h.g.t.X.        ",
"                j A n V ^ X.X._ { <.e.e.e.g.h.V.V.V.P.B.c.m.n.:.W i.x.V.A.V.P.c.a.x.7.          ",
"                * 0 V v P ^ #.^ P ] =.<.e.p.f.m.9.r.v.J.n.G.G.n.f.n.n.f.g.x.b.g.8.t.#.          ",
"                , * 8 q v D #._ L X.=.<.0.=.~ M y 1 ' ~ 9.e.x.T.F.s.n.9.>.X.0.t.=.0.X.          ",
"                  @ o < 4 v P _ L P >.<.-.^ l.p.<.=.a.x.B.m.| : : ; ; ; O O t ' 7.-.R           ",
"                  3 & . * = r { n d ' <.8.8.8.8.p.,./ ' Q | ] [ =.=.| >.i.e.8.| <.C             ",
"                    , O . * , M s y ' =.=.8.8.p.,.=.| [ W W W B W B } =.8.8.8.=.#.              ",
"                      , + . @ = 0 2 L ' } ,.e.c.B.B.I.P.U.T.I.T.V.N.V.g.p.8.>.] L               ",
"                        3 . . < 0 6 * 3 = } >.8.g.s.V.V.M.B.V.V.K.B.M.M.p.=.C 0                 ",
"                          5 & . * , 4 * , 7 s / =.<.e.p.a.a.p.h.M.g.p.p.P 5                     ",
"                              3 * , 4 , 4 * 9 0 y t B W X.[ [ | ] ' ' n 5                       ",
"                                  5 . 0 6 0 x 0 * = , 0 9 s 0 p 0 0 = 5                         ",
"                                              J z a a 0 q q b 5                                 "
};
