/* XPM */
static char *bfadfe11943e43b5caaab0c0734ebc03Fmm3PDrBpaozei1K[] = {
/* columns rows colors chars-per-pixel */
"42 48 199 2 ",
"   c None",
".  c #030303",
"X  c #070906",
"o  c #090A06",
"O  c #060709",
"+  c #060809",
"@  c #0A0B0B",
"#  c #0C0704",
"$  c #0E110D",
"%  c #11130E",
"&  c #18180F",
"*  c #0D0E11",
"=  c #0F1011",
"-  c #0F1418",
";  c #131414",
":  c #161814",
">  c #1A1C15",
",  c #151618",
"<  c #17191B",
"1  c #1B1C1C",
"2  c #29160A",
"3  c #311C0E",
"4  c #201D13",
"5  c #1D2115",
"6  c #1E221A",
"7  c #212517",
"8  c #22251C",
"9  c #252B1D",
"0  c #292E1B",
"q  c #2B321D",
"w  c #2E391C",
"e  c #31311E",
"r  c #343B1E",
"t  c #383F1E",
"y  c #362817",
"u  c #1D1F20",
"i  c #1F2021",
"p  c #222324",
"a  c #262922",
"s  c #2A2C24",
"d  c #242528",
"f  c #272B2A",
"g  c #2B2C2C",
"h  c #312B20",
"j  c #2D3423",
"k  c #2C332A",
"l  c #323622",
"z  c #353C22",
"x  c #383E22",
"c  c #31332C",
"v  c #353A2B",
"b  c #393D2C",
"n  c #383724",
"m  c #2D2E32",
"M  c #2F3032",
"N  c #2E3637",
"B  c #323335",
"V  c #373C31",
"C  c #393C33",
"Z  c #333439",
"A  c #3B3C3C",
"S  c #37383C",
"D  c #55361C",
"F  c #592C10",
"G  c #643A1A",
"H  c #763B15",
"J  c #483A24",
"K  c #573A23",
"L  c #633F26",
"P  c #35421E",
"I  c #3A421F",
"U  c #374121",
"Y  c #3B4322",
"T  c #3E4824",
"R  c #3C422C",
"E  c #3D4233",
"W  c #3D4239",
"Q  c #3F4835",
"!  c #40481F",
"~  c #6A411F",
"^  c #7D4217",
"/  c #404623",
"(  c #414A25",
")  c #444C2B",
"_  c #454B2B",
"`  c #4A512C",
"'  c #414433",
"]  c #434B34",
"[  c #42443A",
"{  c #454B3B",
"}  c #4A4C3D",
"|  c #4E5538",
" . c #565E3A",
".. c #584B36",
"X. c #69472A",
"o. c #6D4C30",
"O. c #3C3D41",
"+. c #434441",
"@. c #4A4D42",
"#. c #4C4E4C",
"$. c #4D5343",
"%. c #4F524A",
"&. c #525646",
"*. c #525947",
"=. c #52564A",
"-. c #555B4C",
";. c #5A5E4E",
":. c #4D4E52",
">. c #515155",
",. c #5A5E51",
"<. c #595D55",
"1. c #5B4F42",
"2. c #5E624E",
"3. c #5D6253",
"4. c #5D6059",
"5. c #616555",
"6. c #62645A",
"7. c #666A5B",
"8. c #696D5D",
"9. c #656A54",
"0. c #6D715E",
"q. c #727856",
"w. c #616643",
"e. c #696A67",
"r. c #6D7162",
"t. c #717566",
"y. c #777A6A",
"u. c #7A7D6D",
"i. c #77746B",
"p. c #6F7073",
"a. c #7B7D76",
"s. c #80380F",
"d. c #893C13",
"f. c #903E13",
"g. c #943D0F",
"h. c #87461D",
"j. c #954313",
"k. c #954A1D",
"l. c #A34813",
"z. c #B75816",
"x. c #AE5211",
"c. c #924D23",
"v. c #965227",
"b. c #A74F21",
"n. c #AC5C26",
"m. c #BA6429",
"M. c #DA7016",
"N. c #E5791B",
"B. c #CC6624",
"V. c #D76F27",
"C. c #D97429",
"Z. c #CD6B30",
"A. c #D77C35",
"S. c #E37926",
"D. c #956446",
"F. c #C87A40",
"G. c #78815E",
"H. c #7C8073",
"J. c #E88018",
"K. c #E78736",
"L. c #F38E38",
"P. c #F89738",
"I. c #F08F29",
"U. c #F7A43C",
"Y. c #FDB03D",
"T. c #FCAA46",
"R. c #FFBB4D",
"E. c #FEB955",
"W. c #FFC559",
"Q. c #FFD958",
"!. c #FDC54A",
"~. c #FFD664",
"^. c #FFE76B",
"/. c #FFED7B",
"(. c #FFE973",
"). c #FFF27B",
"_. c #FFF377",
"`. c #87888B",
"'. c #929292",
"]. c #939692",
"[. c #9FA09C",
"{. c #B6BBB7",
"}. c #FFDE86",
"|. c #FFF682",
" X c #FFFB8E",
".X c #FFFD9B",
"XX c #FFFC94",
"oX c #FFFFA4",
"OX c #FFFFAE",
"+X c #FFFFBC",
"@X c #C4CDDB",
"#X c #FFFFC1",
"$X c #FFFFCD",
"%X c #FFFFD1",
"&X c #FFFFDC",
"*X c #FFFFE4",
"=X c #FFFFE9",
"-X c #FFFFF3",
";X c #FFFFFE",
/* pixels */
"                  c.  k.XX!..X_.Q.I.V.j.                                            ",
"                  j.N.W.;X-X;X-X=XY.S.l.s.                                          ",
"                    R..X+X;X;X;X*XQ.L.l.d.                                          ",
"                l.B.XX;X=X;X;X;X%X XP.z.g.d.d.                                      ",
"                  }.=X;X;X;X;X;X-X#XY.N.S.                                          ",
"              b.Z.V.E.;X;X;X;X;X;X;X).U.j.                                          ",
"                Z.L. X;X;X;X;X;X;X;X%Xz.K.                                          ",
"                v.P./.;X;X;X;X;X;X;X=XL.d.                                          ",
"              & } B.E.*X;X;X;X;X;X;X*X_.f.                                          ",
"              % 1.G K.oX*X;X;X;X;X=X$X|.B.                                          ",
"            8.#.4 ..D U.+X-X;X;X*X$XOX).C.                                          ",
"            &.[ ] &.o.^ .X$X-X;X$X.X XM.l                                           ",
"          2.=.5.{ C J K.^./.+X#XoX/.W.m.j                                           ",
"          $.6 &.& s h h !.N.^._.(.~.Z.J o.                                          ",
"        [ [ } $.C s 9 L A.R.z.U.R.R.v...                                            ",
"        Q [ s %.s ; 9 n s.I.F n.A.m.X.                                              ",
"      y.-.3.-.s c 9 [ . 3 C.b.n.c.K l i.    Q                                       ",
"      2.[ &.@.s 9 a X # X H G c.c.n 0 9 z $ s             a.                        ",
"    C &.l =.c c 9 ; @ # F D H h.G e 0 0 j j r             {.                        ",
"    W < { : c 9 9 8 $ . 2 h.^ k.n q s 0 v l q q       7.  O                         ",
"  5 =.y.6 . s 6 l > p 2 . 3 y ~ l s q q l j 0 w   { { | w.` q.q.G.D.( ].S           ",
"  > W ,.E B @ $ b a 8 > & > p j j q q q 0 0 0 q ] T } j j z z r z Y T Y ) `         ",
"  > &.&.c X > . X @ . X b X f l q q 0 j q 0 q r { $.[ T i i i 1 < l ; < 1 < Z       ",
"    -.C < 7 > @ C . + + X . W q q 0 0 0 0 0 q 5 Q A W 9 M d f i u q , ; *   m i.8   ",
"  r.a s 8 a < . a O . : 6 @ { 6 $ . 0 9 w j R o S :.N b B u d u 1 z < -       < O , ",
"  ,.C s > . . . . . @ @   @ -.Y { U 0 0 2.q 3.N A >.Z @.p f i u 1 I 1 ,       > @ : ",
"C @.k : X f O . . . ;     @ ;.q R q -.3.j E 4.v O.>.i -.d d u d d s i e.e.    Y . , ",
"9 v 7 . . . . . 1 X ;           =.. -.6.-.*.4.k O.>., X x s [ '.+.e.:.`.e.'.  Y @ 1 ",
"  v 8 p.< 1 . c . <.@ 4.4.4.3.3.O O 2.e.*.6.7.V C O.+.$.R t I I U ) ` R T ( ( )     ",
"  a =   B . . . @   -.8.&.-.3.{ . i 3.8.-.r.8.R $.*.[ ,.&.w t r Y Y Y Y ` ( I U _   ",
"        m . . ;.7.7.8.> . . . . N i 2.3.3.r.r.E -.*.s j -.z t z z U T ( ( ( U U (   ",
"  5.5.$.;.8.,.9.o . . X X o 1 - f O.3.i @.4.r.W { $.$.$.3.z U z T `  .(  .) P I T   ",
"  5.c 6.7.8.3.r.@ o % X @ > X ; O.$ 5.2.-.&.. j -.=.*.$.5.U z I r ( r z ! / Y I T   ",
"  ,.} 8.8.7.4.$.& y.t.0.9./ Y z O.= . r.H.y.8.. [ [ [ -.2.U 9 Q Q  .I I  .R 5 I _   ",
"  < . i r.8.4.8 4.> . X X r z z S > O i.y.u.i.. -.=.&.r.6.| U Y t ) ( T | ) T U (   ",
"  g @ Z 8.7.2.9 = M % . p 0 > 7 g 7 e.c j . a.: k O.m R s Y z x I I I I I ! Y Y z   ",
"  g < g 8.0.u.o @ Z p Z M 8 f : O.8 p @ ; < : ' C r.t.; @ . > ) z Y U U Y U I > e.  ",
"  a < { O a t.$ O m B S A % k & Z f O.@ ; u ; 8.. 8.0.7 > @.0 t t z I Y U U x ].].  ",
"  v O W @ @ =.$ X . O.W V O k . g i @XB ; 6 g 8.. 7.8.s v s 5 E ' ] { [ { { ' q l   ",
"  Z O g ;   ,.@ $ . M f k O k . . f `.d f : ; c W 5.7.b E C C E C b C { { { { b     ",
"  B * m ,         9 g A C @ s @ . @ . , : < E : . . . =.' ' b C C [ -.      X       ",
"    < @ @         [ B Z p + ;     . ; u b C c < O O @ X @ ; v k @ O c               ",
"                  m ; m m , 4       * u W % C , * p       O . O @ . m               ",
"                  M . , < * ,       g d 1 : . , : .       + O . = O >               ",
"                        , +           p , v p * < @       , * O O a B               ",
"                                        < u ; ; O           + + O i                 ",
"                                        ; ; @ , .             + p                   ",
"                                          . O 1                                     "
};
