/* XPM */
static char *_3923b37721d49a0fba543e4f71227b1dHAHkzSFXKbuDKOt[] = {
/* columns rows colors chars-per-pixel */
"42 48 155 2 ",
"   c None",
".  c #040505",
"X  c #070806",
"o  c #060708",
"O  c #070809",
"+  c #0A0C0B",
"@  c #0F100E",
"#  c #11120F",
"$  c #0E0F10",
"%  c #0F1011",
"&  c #131413",
"*  c #161914",
"=  c #1A1C16",
"-  c #151719",
";  c #171819",
":  c #1A1C1C",
">  c #1E211B",
",  c #22241D",
"<  c #25281D",
"1  c #292D1F",
"2  c #2D311F",
"3  c #31371F",
"4  c #1E1F20",
"5  c #1F2022",
"6  c #232424",
"7  c #262922",
"8  c #292C24",
"9  c #262728",
"0  c #27282A",
"q  c #2B2C2C",
"w  c #2D3323",
"e  c #2E312A",
"r  c #303625",
"t  c #333A26",
"y  c #3B3F26",
"u  c #32352C",
"i  c #353B2B",
"p  c #393E2A",
"a  c #2E2F31",
"s  c #2F3131",
"d  c #323334",
"f  c #363A32",
"g  c #3A3D33",
"h  c #343539",
"j  c #37383A",
"k  c #3A3B3C",
"l  c #364325",
"z  c #3B4325",
"x  c #3F4827",
"c  c #3C432B",
"v  c #3F482A",
"b  c #374030",
"n  c #3D4234",
"m  c #3F4833",
"M  c #3F423A",
"N  c #414726",
"B  c #424A26",
"V  c #404729",
"C  c #434A2B",
"Z  c #49512E",
"A  c #414535",
"S  c #434A35",
"D  c #4A4F30",
"F  c #42453C",
"G  c #454B3C",
"H  c #494C3D",
"J  c #475131",
"K  c #4B5233",
"L  c #4D513C",
"P  c #505532",
"I  c #50523B",
"U  c #545C3A",
"Y  c #3C3E41",
"T  c #403E44",
"R  c #424443",
"E  c #474845",
"W  c #464B42",
"Q  c #494E41",
"!  c #46474B",
"~  c #4C4E4B",
"^  c #494A4F",
"/  c #4C5142",
"(  c #4D5343",
")  c #4D5542",
"_  c #4D5344",
"`  c #4D5346",
"'  c #4F5544",
"]  c #4E5746",
"[  c #4F5447",
"{  c #4C5144",
"}  c #4E5249",
"|  c #505344",
" . c #515647",
".. c #515A43",
"X. c #515549",
"o. c #515748",
"O. c #535549",
"+. c #525849",
"@. c #55594B",
"#. c #555A4C",
"$. c #575B4D",
"%. c #575C4F",
"&. c #55594B",
"*. c #595D4E",
"=. c #595E4D",
"-. c #4D4E52",
";. c #535651",
":. c #515355",
">. c #565A50",
",. c #5A5E53",
"<. c #5B5D5E",
"1. c #5C6140",
"2. c #5D614D",
"3. c #5A6051",
"4. c #5E6252",
"5. c #5D6254",
"6. c #5F625B",
"7. c #5F6A5E",
"8. c #626555",
"9. c #60625C",
"0. c #626558",
"q. c #676A5A",
"w. c #666B5B",
"e. c #696D5C",
"r. c #696D5E",
"t. c #6B725A",
"y. c #6C705D",
"u. c #737955",
"i. c #787C5E",
"p. c #646663",
"a. c #676964",
"s. c #6B6E61",
"d. c #65666B",
"f. c #6A6C6B",
"g. c #6E7163",
"h. c #6D7163",
"j. c #717466",
"k. c #73756B",
"l. c #757869",
"z. c #76796B",
"x. c #7A7D6F",
"c. c #797C6D",
"v. c #747576",
"b. c #737473",
"n. c #777973",
"m. c #815941",
"M. c #7D8074",
"N. c #868C76",
"B. c #858B85",
"V. c #8F918D",
"C. c #969C8E",
"Z. c #879197",
"A. c #9EA19F",
"S. c #A2A2A5",
"D. c #ACAEAB",
/* pixels */
"                      _ L                                                           ",
"                      c c A     Q A                                                 ",
"                    c r r c     i i A                                               ",
"                  E S r e t   n r t b                                               ",
"                  X.' b r 2 7 < i r r                                               ",
"                  A E G r w G & b t r                                               ",
"                3./ s # w A < + b r r                                               ",
"                H & S S r n & + @ > p.                                              ",
"              < +.4.t c V > O $ + 7 v c                                             ",
"              , E p t t c # + o O n b b A                                           ",
"            e.} b f c t p n + + + I c i m                                           ",
"            ' R H o.G p l e + & : w.n p i                                           ",
"          q.;.l.' k b n c O X + % s G b r                                           ",
"          ' u / , u q r A O . @ ; 7 b c Q                                           ",
"        < X., +.f e 8 M O + + & q , e W                                             ",
"        7 7 * } e & 8 e . O @ 6 & 7 H                                               ",
"      x.#.s.%.u i 7 M X + @ + > < 8 t       n                                       ",
"      =.F @.Q u 8 e & + + % , > A t e w b & t             v.                        ",
"    7 +._ >.f u 8 * & O + 7 : * r w 2 w i r r             B.                        ",
"    < :  .7 u 7 q 7 - + + & , e i w w w p l r 2       /   d                         ",
"  <  .H f + q 7 < , 7 * + & < r e i w r t t 3 w   G A t.1.Z N.u.i.m.N C.9.          ",
"  7 g ,.M f # = f 8 7 > * w q r w w w w w 2 r 3 A S H p t t y l S B C v Z S         ",
"  n 4.o.u & , + + * + & < & 6 w w w w t 2 w 3 i ( ' G c 9 6 6 6 6 t : 4 6 6 a       ",
"    #.k & < : + 6 X $ & # + F e w w w 2 2 2 w > g k M n d a a 6 5 t : : -   : k.7   ",
"  #.g > 7 u : . + & + , + + i < * # w 1 t p S & ! -.a e h s 0 6 6 t : :       8 & : ",
"  ,.g w > . . O o + & &   f 3.c ..e w w g w 3.@ -.-.h c 0 s 9 9 7 l 5 :       7 $ 6 ",
"e Q f ; * 4 $ . X + >     o 5.t G 2 Q 0.p A 4.+ -.-.5 >.q 0 5 0 6 t 9 f.f.    c $ 5 ",
"w g > + O + O ; : & #           > + Q q.Q #.8.@ ^ :.- #.c i G v.R %.^ <.d.S.  z + 4 ",
"  f 7 k + q + & + a.q 5.0.9.0.;.@ + +.h.G q.q.& R T ! i c x z z z Z K v x Z C J     ",
"  & :   q O X + #   =.w.X.#.,.{ + q +.s.Q h.r.: [ X.w 5.A t z z l v z V K B z z C   ",
"        a O , 2.q.e.e.# + X O O 9 a e 0.{ g.y.> +.+.e r A y z y c z J v x B z z K   ",
"  9.4.Q 4.q.H 0.+ + + @ # # 6 4 q k #.' 3.H h.> W X./ s.A y l y K Z U Z U Z z z B   ",
"  0.A 0.q.r.{ h.& & = # & , + - T , #.2.@. .. * @.@.@.r.H z y l t N t t z N z z z   ",
"  5.#.s.r.r.Q 7 * z.j.t.4.N z t k 5 + l.N.l.r.. A F F a.H z : 1 < U N z , , < z C   ",
"  9 . & g.h._ = A., + - + t t z , , % l.l.z.D.. #.@.@.h.H L y l z K N N K C V z C   ",
"  a & j r.e.>.8 > h = + q w < < u * <.u e o 6.* u T a A i l l y z z z z N B z z z   ",
"  , - h p.e.k.# & h 4 d s < * > T @ j & q 5 q M A s.j.= ; . X D z N z l z z z = k.  ",
"  7 6 e $ u 0.* $ ,.4 Y k > # > T & F 9 : 6 : r.O s.h.e , k., y z z z c z l N f.V.  ",
"  n & 6 & & M - + O j e e % @ + 9 0 Z.Y ; 7 a e.o s.s.8 t 8 7 n A A H H Q H p 8 r   ",
"  k $ h -   ,.& * + h e R % @ + + d n.6 : f 7 f A 0.q.b n A g n n n n G H H H n     ",
"  a * 0 :         : d u e % & O O 4 : 4 f f A : . $ O ;.n A n M g H >.      9.      ",
"    9 : -         A d d d - ;     & ; 4 g g g : & X & & & 7 f r + $ 7               ",
"                  h & h a : ,       - 4 u 7 n : d 6       % o $ ; & q               ",
"                  6 X 4 0 : &       9 6 q , + : : :       & & + $ $ q               ",
"                        & %           6 : g a - , 6       4 $ - $ q                 ",
"                                        ; 6 4 : &           $ $ + 6                 ",
"                                        9 : - : +             & -                   ",
"                                          . 4 4                                     "
};
