/* XPM */
static char *result[] = {
/* columns rows colors chars-per-pixel */
"48 48 236 2 ",
"   c #0C0D0E",
".  c #1B1B1B",
"X  c #272829",
"o  c gray19",
"O  c #3C3C66",
"+  c #494949",
"@  c #4B4E4F",
"#  c #505455",
"$  c #555759",
"%  c #585B5C",
"&  c #585A5F",
"*  c #616567",
"=  c #676667",
"-  c #66696B",
";  c #696C6E",
":  c #6E7374",
">  c #6F7377",
",  c #707274",
"<  c #717476",
"1  c #737476",
"2  c #73797B",
"3  c #767B7C",
"4  c #767A7D",
"5  c #777B7D",
"6  c #7A7D7E",
"7  c #FF2F36",
"8  c #FF393F",
"9  c #FEFA31",
"0  c #D5D57C",
"q  c #7A7E81",
"w  c #797F82",
"e  c #7C8183",
"r  c #7C8184",
"t  c #7C8285",
"y  c #7E8487",
"u  c #808487",
"i  c #808689",
"p  c #81878B",
"a  c #82888B",
"s  c #87898B",
"d  c #83898C",
"f  c #838B8E",
"g  c #84898D",
"h  c #848A8D",
"j  c #868A8D",
"k  c #858A8E",
"l  c #858B8E",
"z  c #878D91",
"x  c #888E91",
"c  c #898F93",
"v  c #8B9092",
"b  c #8A9195",
"n  c #8D9295",
"m  c #8E9395",
"M  c #8D9498",
"N  c #939393",
"B  c #929394",
"V  c #93979A",
"C  c #91989B",
"Z  c #92989A",
"A  c #92999D",
"S  c #9B9B9B",
"D  c #969DA0",
"F  c #969DA1",
"G  c #989EA2",
"H  c #999FA3",
"J  c #BD9EA1",
"K  c #99A0A4",
"L  c #9AA0A4",
"P  c #9AA1A4",
"I  c #9AA1A5",
"U  c #9BA3A6",
"Y  c #9FA3A5",
"T  c #9CA3A7",
"R  c #9FA4A7",
"E  c #9FA6AA",
"W  c #A0A7AB",
"Q  c #A1A8AB",
"!  c #A3A9AB",
"~  c #A1A8AC",
"^  c #A3A9AD",
"/  c #A2AAAE",
"(  c #A3AAAE",
")  c #A3ABAF",
"_  c #A4AAAE",
"`  c #A9ADAF",
"'  c #AEAEAF",
"]  c #A6ACB0",
"[  c #A6ADB0",
"{  c #A6ADB3",
"}  c #A8AFB3",
"|  c #A8AFB4",
" . c #A9B1B5",
".. c #AAB1B5",
"X. c #AAB2B6",
"o. c #ABB2B6",
"O. c #AEB3B6",
"+. c #ABB3B8",
"@. c #ADB5B9",
"#. c #ADB6BA",
"$. c #AEB6BA",
"%. c #AFB7BC",
"&. c #AFB8BC",
"*. c #B0B4B8",
"=. c #B1B9BD",
"-. c #B2BBBF",
";. c #B4BCC0",
":. c #B4BCC1",
">. c #B5BDC1",
",. c #B6BDC0",
"<. c #B5BDC2",
"1. c #B5BEC2",
"2. c #B9BEC1",
"3. c #B8BEC3",
"4. c #BBBFC2",
"5. c #B8C0C5",
"6. c #B8C1C5",
"7. c #B9C2C5",
"8. c #B8C1C6",
"9. c #B9C1C7",
"0. c #B9C2C6",
"q. c #BAC2C7",
"w. c #BBC3C7",
"e. c #BDC3C7",
"r. c #BBC2C8",
"t. c #BBC3C8",
"y. c #BBC4C8",
"u. c #BDC4C9",
"i. c #BCC5C9",
"p. c #BDC5C9",
"a. c #BCC5CA",
"s. c #BDC5CA",
"d. c #BDC6CB",
"f. c #BEC6CB",
"g. c #BFC6CB",
"h. c #BEC7CB",
"j. c #BEC6CC",
"k. c #BEC7CC",
"l. c #BFC7CC",
"z. c #BFC8CC",
"x. c #C3C1C1",
"c. c #C1C4C6",
"v. c #C0C7CD",
"b. c #C0C9CC",
"n. c #C0C8CD",
"m. c #C0C9CD",
"M. c #C0C9CE",
"N. c #C1C9CE",
"B. c #C1C9CF",
"V. c #C1CACE",
"C. c #C1CACF",
"Z. c #C3CACE",
"A. c #C2CACF",
"S. c #C2CBCF",
"D. c #C3CBCF",
"F. c #C6CBCF",
"G. c #C5CCCF",
"H. c #D1C8CC",
"J. c #C2CBD0",
"K. c #C3CBD0",
"L. c #C2CCD2",
"P. c #C4CCD0",
"I. c #C5CDD0",
"U. c #C4CCD1",
"Y. c #C4CDD1",
"T. c #C5CDD1",
"R. c #C6CDD0",
"E. c #C5CCD2",
"W. c #C4CDD2",
"Q. c #C5CDD2",
"!. c #C6CDD2",
"~. c #C6CED2",
"^. c #C6CED3",
"/. c #C6CFD3",
"(. c #C7CFD3",
"). c #C7CED4",
"_. c #C6CFD4",
"`. c #C7CFD4",
"'. c #C7CFD5",
"]. c #C8CFD4",
"[. c #C9CFD4",
"{. c #C7D0D5",
"}. c #C8D0D4",
"|. c #C8D0D5",
" X c #C8D1D5",
".X c #C9D1D5",
"XX c #CAD2D5",
"oX c #CBD2D5",
"OX c #C9D1D6",
"+X c #C9D2D6",
"@X c #CAD3D6",
"#X c #CAD2D7",
"$X c #CBD2D7",
"%X c #CAD3D7",
"&X c #CCD3D6",
"*X c #CCD3D7",
"=X c #CAD3D8",
"-X c #CBD3D8",
";X c #CCD3D8",
":X c #CBD4D8",
">X c #CBD4D9",
",X c #CBD5DA",
"<X c #CCD4D8",
"1X c #CDD5D8",
"2X c #CCD5D9",
"3X c #CED4D9",
"4X c #CDD6DA",
"5X c #CDD6DB",
"6X c #CED7DB",
"7X c #CFD8DD",
"8X c #D0D5D8",
"9X c #D0D6D9",
"0X c #D0D6DA",
"qX c #D2D8DC",
"wX c #D3D9DC",
"eX c #D1D9DE",
"rX c #D2DADE",
"tX c #D2DADF",
"yX c #D5DBDD",
"uX c #DBDEDE",
"iX c #E9E6CF",
"pX c #D4DCE0",
"aX c #D4DDE1",
"sX c #D5DDE1",
"dX c #D6DEE2",
"fX c #D8DDE0",
"gX c #D9DEE0",
"hX c #DBDFE1",
"jX c #DDE1E2",
"kX c #DDE2E4",
"lX c #E4E4E4",
"zX c #E1E6EA",
"xX c #FFEDEC",
"cX c gray95",
"vX c #FCFDFD",
"bX c None",
/* pixels */
"bXbXbXbXbXbXbXbXbXbXbXbXbXbXbXbXbXbXbXbXbXbXbXbXbXbXbXbXbXbXbXbXbXbXbXbXbXbXbXbXbXbXbXbXbXbXbXbX",
"bXbXbXbXbXbX#XbXbXbXbXbXbXbXbXbXbXbXbXbXbXbXbXbXbXbXbXbXbXbXbXbXbXbXbXbXbXbXbXbXbXbXbXbXbXbXbXbX",
"bXbXbXbXbXbX>X$XbXbXbXbXbXbXbXbXbXbXbXbXbXbXbXbXbXbXbXbXbXbXbXbXbXbXbXbXbXbXbXbXbXbXbXbXbXbXbXbX",
"bXbXbXbXbXbXA :XH.bXbXbXbXbXbXbXbXbXbXbXbXbXbXbXbXbXbXbXbXbXbXbXbXbXbXbXbXbXbXbXbXbXbXbXbXbXbXbX",
"bXbXbXbXbXbXbXaX:XbXbXbXbXbXbXbXbXbXbXbXbXbXbXbXbXbXbXbXbXbXbXbXbXbXbXbXbXbXbXbXbXbXbXbXbXbXbXbX",
"bXbXbXbXbXbXbXbX2X@XbXbXbXbXbXbXbXbXbXbXbXbXbXbXbXbXbXbXbXbXbXbXbXbXbXbXbXbXbXbXbXbXbXbXbXbXbXbX",
"bXbXbXbXbXbXbXbXM -X3XbXbXbXbXbXbXbXbXbXbXbXbXbXbXbXbXbXbXbXbXbXbXbXbXbXbXbXbXbXbXbXbXbXbXbXbXbX",
"bXbXbXbXbXbXbXbXbXsX-XbXbXbXbXbXbXbXbXbXbXbXbXbXbXbXbXbXbXbXbXbXbXbXbXbXbXbXbXbXbXbXbXbXbXbXbXbX",
"bXbXbXbXbXbXbXbXbXbX2X#XbXbXbXbXbXbXbXbXbXbXbXbXbXbXbXbXbXbXbXbXbXbXbXbXbXbXbXbXbXbXbXbXbXbXbXbX",
"bXbXbXbXbXbXbXbXbXbXf :X*XbXbXbXbXbXbXbXbXbXbXbXbXbXbXbXbXbXbXbXbXbXbXY.bXbXbXbXbXbXbXbXbXbXbXbX",
"bXbXbXbXbXbXbXbXbXbXbX%X-XqXbXbXbXbXbXbXbXbXbXbXbXbXbXbXbXbXbXbXbXbX%.M.bXbXbXbXbXbXbXbXbXbXbXbX",
"bXbXbXbXbXbXbXbXbXbXbXbX7X%XbXbXbXbXbXbXbXbXbXbXbXbXbXbXbXbXbXbXbX,.4 v.bXbXbXbXbXbXbXbXbXbXbXbX",
"bXbXbXbXbXbXbXbXbXbXbXbXl >X+XbXbXbXbXbXbXbXbXbXbXbXbXbXbXbXbXbXbX- * z.J.bXbXbXbXbXbXbXbXbXbXbX",
"bXbXbXbXbXbXbXbXbXbXbXbXbXM.-X0XbXbXbXbXbXbXbXbXbXbXbXbXbXbXbXbXv bXbX8 C.bXbXbXbXbXbXbXbXbXbXbX",
"bXbXbXbXbXbXbXbXbXbXbXbXbXbXtX#XkXbXbXbXbXbXbXbXbXbXbXbXbXbXbXbXY bXbX7 y.bXbXbXbXbXbXbXbXbXbXbX",
"bXbXbXbXbXbXbXbXbXbXbXbXbXbXp <XXXbXbXbXbXbXbXbXbXbXbXbXbXbXbXn : bXbX8.M.bXbXbXbXbXbXbXbXbXbXbX",
"bXbXbXbXbXbXbXbXbXbXbXbXbXbXbXu.-X*XbXbXbXbXbXbXbXbXbXbXbXbXt c.bXbXbX1Xn.bXbXbXbXbXbXbXbXbXbXbX",
"bXbXbXbXbXbXbXbXbXbXbXbXbXbXbXbXsX#XwXbXbXbXbXbXbXbXbXbXbXW.` bXbXbXbXk H C.bXbXbXbXbXbXbXbXbXbX",
"bXbXbXbXbXbXbXbXbXbXbXbXbXbXbXbXa >XOXbXbXbXbXbXbXbXbXbX&.bXbXbXbXbXbXbXk.B.bXbXbXbXbXbXbXbXbXbX",
"bXbXbXbXbXbXbXbXbXbXbXbXbXbXbXbXbX6.#X.XbXbXbXbXbXbX&X] bXbXbXbXbXbXbXbXa.M.bXbXbXbXbXbXbXbXbXbX",
"bXbXbXbXbXbXbXbXbXbXbXbXbXbXbXbXbXbXdX#X9XbXbXbXbXU.Q bXbXbXbXbXbXbXbXbXq.n.bXbXbXbXbXbXbXbXbXbX",
"bXbXbXbXbXbXbXbXbXbXbXbXbXbXbXbXbXbXi 2X|.gXbXbX~ E bXbXx.bXbXbXbXbXbXbX5.n.V.bXbXbXbXbXbXbXbXbX",
"bXbXbXbXbXbXbXbXbXbXbXbXbXbXbXbXbXbXbX:.OX!.E.Z R bXI.'.=XcXbXbXbXbXbXbXzXO w.bXbXbXbXbXbXbXbXbX",
"bXbXbXbXbXbXbXbXbXbXbXbXbXbXbXbXbXbX& bXrX XD.O.bXw   ,X%.lXbXbXbXbXbXbXh l.W.bXbXbXbXbXbXbXbXbX",
"bXbXbXbXbXbXbXbXbXbXbXbXbXbXbXbXbXbXbXbXx g.Y.5.~.6XU.W f.bXbXbXbXbXbXbXbX:.bXbXbXbXbXbXbXbXbXbX",
"bXbXbXbXbXbXbXbXbXbXbXbXbXbXbXbXbXbXbXe % /.D.P.4Xh.U z G 1 bXbXbXbXbX8X..bXbXbXbXbXbXbXbXbXbXbX",
"bXbXbXbXbXbXbXbXbXbXbXbXbXbXbXbXbXbXbXu @ N.Z.5Xt.L b m C B bXbXbXbX_.[ bXbXbXbXbXbXbXbXbXbXbXbX",
"bXbXbXbXbXbXbXbXbXbXbXbXbXbXbXbXbXbXbXbXbXe.5X5.I k g 2 bXbXbXbXbX=.! bXbXbXbXbXbXbXbXbXbXbXbXbX",
"bXbXbXbXbXbXbXbXbXbXbXbXbXbXbXbXbXbXbXbXR.l.m. .E T D 5 bXbX' F.J 2.bXbXbXbXbXbXbXbXbXbXbXbXbXbX",
"bXbXbXbXbXbXbXbXbXbXbXbXbXbXbXbXbXbXbX} eX{.0 p.r.:.#.{ 4.bX_.| bXbXbXbXbXbXbXbXbXbXbXbXbXbXbXbX",
"bXbXbXbXbXbXbXbXbXbXbXbXbXbXbXbXbXbXuXpX_.J.9 s.i.K.N.j.0.P _ bXbXbXbXbXbXbXbXbXbXbXbXbXbXbXbXbX",
"bXbXbXbXbXbXbXbXbXbXbXbXbXbXbXbXbXbXA.J.C.f.9.<.6.6.h.-.-XG.*.bXbXbXbXbXbXbXbXbXbXbXbXbXbXbXbXbX",
"bXbXbXbXbXbXbXbXbXbXbXbXbXbXbXbXbX3.d.C.k.<.;.@.F c d y &.Q.T.7.bXbXbXbXbXbXbXbXbXbXbXbXbXbXbXbX",
"bXbXbXbXbXbXbXbXbXbXbXbXbXbXbXbXbX$.S.f.>.( ^ iX6 bXbXbXbXM |.^.[.bXbXbXbXbXbXbXbXbXbXbXbXbXbXbX",
"bXbXbXbXbXbXbXbXbXbXbXbXbXbXbXbXbXX / ) L vX3 bXbXbXbXbXbX$ < b.`.h.bXbXbXbXbXbXbXbXbXbXbXbXbXbX",
"bXbXbXbXbXbXbXbXbXbXbXbXbXbXbXbXbXbXbXbXbX+ V bXbXbXbXN bX# ; , X.`.`.hXbXbXbXbXbXbXbXbXbXbXbXbX",
"bXbXbXbXbXbXbXbXbXbXbXbXbXbXbXbXbXbXbXbXbXbXbXbXbXbXbXS q s > bXbXr #X).L.bXbXbXbXbXbXbXbXbXbXbX",
"bXbXbXbXbXbXbXbXbXbXbXbXbXbXbXbXbXbXbXbXbXbXbXbXbXbXbXo bXbXbXbXbXbXbXs.|.xXbXbXbXbXbXbXbXbXbXbX",
"bXbXbXbXbXbXbXbXbXbXbXbXbXbXbXbXbXbXbXbXbXbXbXbXbXbXbX. bXbXbXbXbXbXbXbXK |.(.jXbXbXbXbXbXbXbXbX",
"bXbXbXbXbXbXbXbXbXbXbXbXbXbXbXbXbXbXbXbXbXbXbXbXbXbXbX= bXbXbXbXbXbXbXbXbXbX:X`.yXbXbXbXbXbXbXbX",
"bXbXbXbXbXbXbXbXbXbXbXbXbXbXbXbXbXbXbXbXbXbXbXbXbXbXbXbXbXbXbXbXbXbXbXbXbXbXbX1. XoXbXbXbXbXbXbX",
"bXbXbXbXbXbXbXbXbXbXbXbXbXbXbXbXbXbXbXbXbXbXbXbXbXbXbXbXbXbXbXbXbXbXbXbXbXbXbXbXj  X].bXbXbXbXbX",
"bXbXbXbXbXbXbXbXbXbXbXbXbXbXbXbXbXbXbXbXbXbXbXbXbXbXbXbXbXbXbXbXbXbXbXbXbXbXbXbXbXbX;X}.fXbXbXbX",
"bXbXbXbXbXbXbXbXbXbXbXbXbXbXbXbXbXbXbXbXbXbXbXbXbXbXbXbXbXbXbXbXbXbXbXbXbXbXbXbXbXbXbX+.|.3XbXbX",
"bXbXbXbXbXbXbXbXbXbXbXbXbXbXbXbXbXbXbXbXbXbXbXbXbXbXbXbXbXbXbXbXbXbXbXbXbXbXbXbXbXbXbXbXbXOXo.bX",
"bXbXbXbXbXbXbXbXbXbXbXbXbXbXbXbXbXbXbXbXbXbXbXbXbXbXbXbXbXbXbXbXbXbXbXbXbXbXbXbXbXbXbXbXbXbXbXbX",
"bXbXbXbXbXbXbXbXbXbXbXbXbXbXbXbXbXbXbXbXbXbXbXbXbXbXbXbXbXbXbXbXbXbXbXbXbXbXbXbXbXbXbXbXbXbXbXbX",
"bXbXbXbXbXbXbXbXbXbXbXbXbXbXbXbXbXbXbXbXbXbXbXbXbXbXbXbXbXbXbXbXbXbXbXbXbXbXbXbXbXbXbXbXbXbXbXbX"
};
