/* XPM */
static char *_8363affd399470ae652744db60ad0d130672o9wTuCfsEDo[] = {
/* columns rows colors chars-per-pixel */
"48 48 150 2 ",
"   c #A0875F",
".  c #A58C62",
"X  c #AA8E66",
"o  c #A78D68",
"O  c #AB9266",
"+  c #AE9268",
"@  c #B2966B",
"#  c #B5996C",
"$  c #B99D6E",
"%  c #B69A71",
"&  c #BB9E72",
"*  c #BF9F78",
"=  c #BAA06F",
"-  c #BEA174",
";  c #C09F72",
":  c #C1A476",
">  c #C3A57A",
",  c #C6A97B",
"<  c #CAAC7E",
"1  c #CCB07F",
"2  c #C7AA81",
"3  c #CCAD82",
"4  c #CFAF88",
"5  c #D0AF85",
"6  c #D1AF89",
"7  c #CEB184",
"8  c #CFB288",
"9  c #D1B386",
"0  c #D3B58A",
"q  c #D5B88C",
"w  c #D4B98C",
"e  c #D7B88C",
"r  c #D6B98D",
"t  c #D5B88E",
"y  c #D4B98E",
"u  c #D6B98F",
"i  c #D5BA8F",
"p  c #D7BA8E",
"a  c #D6BB8E",
"s  c #D7BC8F",
"d  c #D6B98D",
"f  c #D9B88D",
"g  c #D8B98D",
"h  c #D8B88F",
"j  c #D9BA8E",
"k  c #D8BB8F",
"l  c #DABB8F",
"z  c #D9BD8E",
"x  c #D9BA8E",
"c  c #D7B590",
"v  c #D6B690",
"b  c #D7B790",
"n  c #D7B791",
"m  c #D7B790",
"M  c #D5B890",
"N  c #D5B991",
"B  c #D6B991",
"V  c #D7BA90",
"C  c #D6BB90",
"Z  c #D7B993",
"A  c #D7BA92",
"S  c #D5BD91",
"D  c #D7BB91",
"F  c #D9B990",
"G  c #D8B891",
"H  c #D8BB91",
"J  c #DABA91",
"K  c #D8B892",
"L  c #D9B992",
"P  c #D9B993",
"I  c #D8BB93",
"U  c #DBBB92",
"Y  c #DABA93",
"T  c #D9BC90",
"R  c #DBBC90",
"E  c #D9BC92",
"W  c #D8BD92",
"Q  c #DABD93",
"!  c #D9BE93",
"~  c #DBBE92",
"^  c #DABF92",
"/  c #DCBC93",
"(  c #DBBB94",
")  c #DBBB95",
"_  c #DDBB96",
"`  c #D9BC94",
"'  c #D9BD95",
"]  c #DABD95",
"[  c #DBBE94",
"{  c #DABF94",
"}  c #DBBD97",
"|  c #DABE96",
" . c #DBBE96",
".. c #DBBF97",
"X. c #DDBD94",
"o. c #DCBC95",
"O. c #DCBF95",
"+. c #DEBE95",
"@. c #DCBC96",
"#. c #DDBD96",
"$. c #DCBF97",
"%. c #DABD93",
"&. c #DCBE98",
"*. c #DDBF99",
"=. c #DEBE98",
"-. c #DFBF98",
";. c #DFBF99",
":. c #DCBE9A",
">. c #DEBF98",
",. c #DBC095",
"<. c #DDC094",
"1. c #DDC096",
"2. c #DCC196",
"3. c #DEC197",
"4. c #DDC297",
"5. c #DDC196",
"6. c #DCC098",
"7. c #DDC098",
"8. c #DCC099",
"9. c #DDC199",
"0. c #DEC199",
"q. c #DFC298",
"w. c #DEC398",
"e. c #DDC19A",
"r. c #DEC09A",
"t. c #DFC19B",
"y. c #DEC29A",
"u. c #DFC29A",
"i. c #DEC29B",
"p. c #DFC39B",
"a. c #DEC09C",
"s. c #DFC39C",
"d. c #DEC199",
"f. c #E0C099",
"g. c #E0C399",
"h. c #E1C19B",
"j. c #E0C39B",
"k. c #E2C29B",
"l. c #E0C29C",
"z. c #E1C39D",
"x. c #E2C29C",
"c. c #E0C29E",
"v. c #E1C39F",
"b. c #E1C49C",
"n. c #E0C49D",
"m. c #E1C59D",
"M. c #E1C59E",
"N. c #E2C49E",
"B. c #E3C59F",
"V. c #E1C39C",
/* pixels */
"9 9 9 e e 0 e e q t I g I Q ' O.P *.O.*...' O.' P I z V t V Q t v V P V V t 0 v P 0 0 6 9 5 9 5 ",
"9 3 9 9 9 9 0 0 t t t I ' ' R ' O.R P V t 9 9 9 9 0 9 0 0 0 0 0 5 6 0 t 0 v P v c 0 f 0 9 5 6 9 ",
", , , < 7 9 0 g g ' I t I P P t t 0 0 7 9 9 0 0 0 q 0 9 w 0 0 0 9 0 9 9 0 f I P P c 0 0 6 6 6 6 ",
"< 9 9 e V V I V 0 0 9 9 9 9 0 9 7 9 9 9 0 9 t V g t t q V t Q t g I 0 0 0 0 0 0 6 0 0 c c c P 6 ",
"9 e e e q 0 8 7 < < 7 9 9 9 8 8 9 0 t t t V V ' ....O.*.' *.O.O.' / _ P P 0 3 3 , , 2 3 6 6 c 6 ",
"9 9 1 < < 3 < < < < 1 9 9 9 9 t w C I ' ' ' O.w.w.w.*.*.w.*.:.*.*.*.*.*.P 6 6 3 < > ; & & & ; ; ",
"< , , , , , < 3 9 9 9 0 t w t t C V I V Q Q ' Q P I R P f I P I P / P c 9 0 0 6 6 5 2 > % @ + + ",
"> , , , < 3 7 9 e 9 q 0 q t S t t 0 w t t V I I ' 0 g I g g f I 0 f f e 0 9 0 0 c 6 0 5 3 ; % @ ",
", < < 1 7 7 9 9 e q 9 q t v w 0 V S S 1.O.' ..w.w.*.*.w.w.w.*.*.O.' / P P v 0 0 5 6 6 6 5 5 2 > ",
"< 1 1 5 9 9 9 q e 0 9 q 0 I t Q *.w.j.s.z.N.z.N.z.z.z.z.a.z.z.z.j.*.f.f.*.O.P P 0 6 3 < < 6 0 6 ",
"9 5 9 9 8 0 9 9 0 q Q Q I O.w.j.w.N.N.N.N.v.v.B.z.a.z.s.a.:.w.w.w.z.j.z.w.a.f./ F c 0 6 3 3 5 0 ",
"9 9 9 e 0 0 0 t Q ' w.w.j.j.j.z.a.z.N.N.N.N.v.v.z.z.z.z.z.*.w.*.f.j.j.*.*.*.*.=./ P 6 c 6 6 5 6 ",
"9 9 5 9 0 0 t Q Q ,.w.w.w.*.O.*.w.O.' O.' O.1.w.w.w.w.j.a.w.w.*.' I g 0 V v / *./ P P c 0 6 0 3 ",
"1 5 9 0 f I Q Q [ S Q O.*.O.w.j.*.*.O.w.1.w.1.O._ g t t z V V v t 0 0 t 0 0 9 P / / P c c 0 6 2 ",
"9 e f R f V V V Q [ <.1.*.1.1.1.w.*.O.O.O.g t V t 0 t I I ' ..P ' z / P I R v 0 v P 0 0 c 0 6 3 ",
"e 9 9 1 9 0 t 0 q e t t g I I g Q 1.O./ Q ' ' Q O.O.O.[ Q O.' ..' ' P O./ _ / / P c 0 c 0 0 6 3 ",
"9 7 7 7 7 7 7 7 9 9 9 e g I ' *.1.w.j.w.w.a.N.w.a.j.*.O.*.j.*.w.f.<.O.O.R O./ / 0 6 0 c c c 3 3 ",
"1 - , 1 1 7 9 9 e I g I ' ' *.*.1.1.O.j.z.w.w.z.z.w.z.:.j.j.w.j.j.j.j.f.O.-.-.I 0 5 5 0 0 3 2 6 ",
", 2 1 7 8 8 9 a 0 z Q [ O.w.N.w.N.N.w.z.w.w.z.j.j.w.z.z.z.j.*.j.j.b.B.f.f.f.*.f 6 0 0 9 4 2 2 4 ",
"1 7 9 9 9 9 q q z <.O.*.w.*.w.1.O.O.O.*.b.N.z.j.w.j.w.a.j.z.z.z.f.j.j.f.O.f 0 0 v 0 v c 0 9 6 9 ",
"3 8 w 8 w q z Q I g t a z t t 0 0 q g t Q ,.Q S t Q g e 0 e e R l _ f.-.I f F R I P f 0 6 0 9 0 ",
"8 8 8 w g t t 0 0 I q 0 q t t q g [ g z z z Q s s t e 9 9 9 9 3 < 5 9 J O.-.f.O.P P P 0 0 6 5 9 ",
"w 9 w 8 t S 0 q V V z Q g Q I [ [ <.Q g g z I Q ' 1.' Q Q t 0 9 1 5 < < 9 f _ -./ P f P f 0 0 0 ",
"1 7 8 9 9 t Q Q z Q g z g t Q g l l e e g t t I Q ' Q Q Q Q Q g P e 9 3 < , < 5 f I 0 5 6 4 < < ",
"1 1 7 0 w z z S Q I I I ' ' ' Q Q Q Q Q Q g I t t t I V V V V I l l e t 9 < , , < 5 c 0 5 2 : & ",
"9 9 9 w a a g Q ' ' O.1.w.w.w.j.w.O.1.w.O.O.w.O.1.1.' P I 0 t q g 0 q t R g 0 5 , , 5 6 0 5 < < ",
"7 8 9 w q g g Q Q O.w.w.O.j.j.j.j.f.*.*.j.w.w.*.w.w.*.*.O.Q [ Q I t 0 0 0 g e e 0 1 2 3 5 0 4 3 ",
"1 1 8 9 9 q 9 0 t I I ' O.*.O.*.w.w.w.j.w.j.j.*.w.w.*.O.' O.[ Q O.' Q f 0 0 0 6 0 6 6 3 3 3 2 > ",
"1 7 7 7 9 9 0 9 q q q z Q Q Q Q *.O.j.*.w.' O.' O.' ' O.O.' O.O.O.R / I P v 0 9 5 5 < < 2 , , , ",
", < 3 < 9 9 0 0 t t s g Q ' Q Q I I O.' Q S Q Q Q Q I z I I I O.O.I R / I P P 0 5 5 < > * * * > ",
"- < < 7 9 9 e e t Q z Q ' Q z g g g t t Q t S z Q I ' Q ' g I I I g l F f f v g c 9 9 2 , ; & @ ",
", 1 9 1 9 q e g V Q g V ' Q Q t Q g I t S t t Q Q g g Q ' g I I f f e 0 0 P v f v 0 9 5 3 < , ; ",
"1 1 7 7 9 9 7 9 w w w 8 w S t Q S ' ,.' Q ,.Q g ' Q Q Q ' P t V I e g 0 c 0 f 0 0 0 9 6 4 2 , > ",
"< 1 < , 1 8 9 7 8 7 8 8 8 8 9 0 8 w t S Q S Q z q t q q V Q Q t I f t q 0 0 9 6 6 0 6 4 4 < , , ",
"< , , , , , 1 1 7 7 w 8 0 9 9 w S S 8 ,.Q Q S t 0 0 0 q 0 g g t t z t t 0 6 9 6 9 4 2 2 3 3 < , ",
", > , , , 7 - 1 3 3 1 3 9 9 9 0 w S w w 0 8 9 9 9 e 0 w 0 0 0 9 t 0 t t f 0 0 9 4 < < , > , , > ",
"- , , , , 1 1 1 < < 5 9 9 9 q 9 8 7 7 8 7 7 7 7 0 9 9 q 0 w 0 0 0 9 9 9 9 9 5 5 3 3 < 2 > < ; 2 ",
"- - - - - , 1 1 9 5 9 9 9 1 7 7 7 7 7 7 w 7 7 9 7 9 9 9 9 9 9 9 9 9 9 < 5 9 5 5 3 3 > 3 ; > ; ; ",
": : , , 1 1 1 1 5 3 3 1 1 3 3 7 7 w 7 7 w 7 7 9 9 9 9 9 9 9 9 9 9 7 4 3 < < 3 < < < 2 > > > > ; ",
", - , , , , 1 , < < , , 3 3 < 7 1 7 w w 8 7 w 9 w 9 9 0 0 9 0 5 7 9 3 3 < , , , > ; > ; > > ; > ",
"= - > - > : > > > , , , 2 < 7 7 7 8 7 7 w 7 w w 0 0 9 9 9 9 9 5 5 6 < < 2 > 2 ; ; ; * * ; * * - ",
"+ # = $ - - - : > > , , 3 1 7 7 7 7 7 w 7 w 8 7 7 9 9 9 9 9 9 9 1 6 3 < < 2 > > 2 ; * ; * & & & ",
"# # $ $ = - - : : > , 1 1 1 7 7 7 7 7 w 1 3 2 3 < 3 < 9 9 9 3 5 < 5 3 < < < , , ; ; ; * & % & % ",
"# = $ $ = % = : > > > , , < , < 1 1 1 - 1 1 1 2 < , , , < , < 3 < < 3 > 2 ; , > < ; ; ; & % % % ",
"@ = # = = : : : - - : : , , , 1 7 2 7 7 7 3 3 7 3 2 < , , , , > , > > ; & & * - ; & & & % % % % ",
"# # $ # $ : $ - = - - , : > , : - - - 7 - , 2 3 , < , , , , > > ; & & & % % % @ % @ @ # % % % + ",
"# @ # # $ $ $ = - - - - - - = = = = - - - 2 < - , - - - : : = = @ + X X % % @ @ X . . X + + X   ",
"O @ # # # $ $ $ - = $ $ $ = # # % % = = - - - - - - - , : = $ # # @ + X O @ # + o . + X X X . X "
};
