/* XPM */
static char *_1326eafbe4f455ee8368a6b7e9c29abZY5UMZuiFvG4QkNv[] = {
/* columns rows colors chars-per-pixel */
"48 48 144 2 ",
"   c #753301",
".  c #793706",
"X  c #7B3A07",
"o  c #793609",
"O  c #7D3C0B",
"+  c #7F400C",
"@  c #813E0D",
"#  c #813E11",
"$  c #82420E",
"%  c #854312",
"&  c #884614",
"*  c #874815",
"=  c #8B4A16",
"-  c #894619",
";  c #874918",
":  c #8C4B1A",
">  c #914E1B",
",  c #95531D",
"<  c #99561E",
"1  c #9B591E",
"2  c #955422",
"3  c #995722",
"4  c #975822",
"5  c #9C5A24",
"6  c #9A572A",
"7  c #9E5D29",
"8  c #9E5E30",
"9  c #A05E26",
"0  c #A15E2A",
"q  c #9F602D",
"w  c #A26026",
"e  c #A3612C",
"r  c #A8652E",
"t  c #A46332",
"y  c #A86631",
"u  c #A76833",
"i  c #AC6B35",
"p  c #AE6C3A",
"a  c #B16E3B",
"s  c #AF703B",
"d  c #B4723C",
"f  c #B67442",
"g  c #B97643",
"h  c #BC7A45",
"j  c #BA7749",
"k  c #BB784B",
"l  c #BC7A48",
"z  c #BE7C48",
"x  c #BF7D49",
"c  c #BE7C4A",
"v  c #BE7C4C",
"b  c #BE7C4A",
"n  c #C07D46",
"m  c #C17F4D",
"M  c #C17E4C",
"N  c #C17E51",
"B  c #C17D50",
"V  c #BF804D",
"C  c #C4824E",
"Z  c #C4824E",
"A  c #C58353",
"S  c #C68450",
"D  c #C68452",
"F  c #C78553",
"G  c #C78555",
"H  c #C68656",
"J  c #C58453",
"K  c #C88652",
"L  c #C98753",
"P  c #C98755",
"I  c #C98757",
"U  c #C98654",
"Y  c #C78855",
"T  c #CA8854",
"R  c #CB8955",
"E  c #CA8856",
"W  c #CB8957",
"Q  c #CC8A56",
"!  c #CD8B57",
"~  c #CB8956",
"^  c #CA875A",
"/  c #CA8858",
"(  c #CB8959",
")  c #CB885B",
"_  c #CC8A58",
"`  c #CD8B59",
"'  c #CC8A5A",
"]  c #CD8B5B",
"[  c #CE8C58",
"{  c #CF8C58",
"}  c #CF8D59",
"|  c #CE8C5A",
" . c #CF8D5B",
".. c #CC895C",
"X. c #CE8B5E",
"o. c #CC8C5C",
"O. c #CE8C5C",
"+. c #CF8D5D",
"@. c #CF8C5F",
"#. c #CF8F5F",
"$. c #CD8B5B",
"%. c #D08F59",
"&. c #D08E5A",
"*. c #D08E5C",
"=. c #D18F5D",
"-. c #D08E5E",
";. c #D18F5F",
":. c #D18E5C",
">. c #CF905D",
",. c #D2905C",
"<. c #D3915D",
"1. c #D2905E",
"2. c #D3915F",
"3. c #D4925E",
"4. c #D5935F",
"5. c #D3925E",
"6. c #D08D60",
"7. c #D18E61",
"8. c #D28F62",
"9. c #D38F62",
"0. c #D29060",
"q. c #D39161",
"w. c #D39063",
"e. c #D59361",
"r. c #D49262",
"t. c #D59363",
"y. c #D69460",
"u. c #D79561",
"i. c #D69462",
"p. c #D49164",
"a. c #D69464",
"s. c #D79565",
"d. c #D69666",
"f. c #D49262",
"g. c #D99763",
"h. c #D89664",
"j. c #D99765",
"k. c #D89666",
"l. c #D89563",
"z. c #D79865",
"x. c #D99866",
"c. c #D69668",
"v. c #DC996C",
"b. c #DA9969",
/* pixels */
"- # - & O 8 ] 9.&.I 4.4.i 3 4 9 1 9 9 1 1 1 9 < 5 9 2 % + ; ; + & $ $ , h <.| :.| | z e , 5 7 < ",
"- : # @ 8 I :.] 4.&.K Q { d 4 9 w 1 1 1 9 1 1 9 7 2 * % % % % ; > X > d } } &.| ] 2.} f q < 5 5 ",
"& # # : y ] j.I ] 4.Q K 4.,.i 1 9 1 1 1 5 3 5 5 2 & $ $ ; % + ; X $ 1 h l.,.T 2.2.E | ,.z q , w ",
"% X : 9 6 y K :.Q { 4.&.T 4.} u < 9 9 9 5 9 5 , $ & $ % % ; % + $ 6 4 7 n 4.| | | E E e.2.g e , ",
"$ , 4 5 7 < e Q ;.S { 4.R Q ;.:.i 9 3 5 0 7 , = # % ; % + + ; % 4 5 9 1 5 n 9.{ E w.@.E >.e.x 6 ",
"= 5 7 4 7 5 7 y R 4.&.Q ;.:.R p.{ a 3 5 7 2 & % - # % ; ; + ; 2 w 5 5 5 0 9 j 9.2.2.| @.2.2.E V ",
"1 1 5 5 1 w e , e R ;.K &.;.X.) l.C p 0 2 & % $ & % & % & ; 2 6 < 5 < < t 2 9 n @.E ' w.w.E ' s.",
"1 w 1 < e 4 > e @ 3 K l.:.{ p.7.Q l.| y % % & & @ = - O & 4 8 6 3 3 9 9 2 9 1 # v @.p.' E w.w.E ",
"q 1 1 q 7 5 , = * $ , K p...p.X.o.@.w.#.t X % * % $ @ & 3 7 6 7 1 , 0 9 , , # & # B v.N v.N l.l.",
"1 1 1 1 w 5 = $ $ = X 5 ..p.6...F s.' A w.i . % $ - : , 7 7 5 7 9 y , 9 2 @ & & - - B N N l.B v.",
"1 1 1 5 , = % $ @ = $ $ 6 N v.7.>.G s.#.o.@.y O X = < 5 0 5 5 7 0 1 1 > # # & & # - # n v.N v.N ",
"q , q i r & @ - $ - : % o 8 N p.#./ d.o.Y f.F r & , 5 4 5 5 5 9 1 , g 0 @ # = # # # & > n v.N v.",
"q > e E e.p - O : % # - > # 6 N #.o./ w.o.o.e.Z , 9 9 < 5 9 < 3 < n B M , @ - - > # - # & g B N ",
", i S | j.e.p & % @ # - - # # 6 A #.o.#.| @.>.r 5 9 1 9 0 3 < 9 n l.l.{ B 6 # > # > # > & @ n N ",
"e E c.G G s.@.f : # : # O - - # 4 #.>.V a.' 0 2 5 5 1 1 1 1 9 d l.N v.N N N , # # # - # & @ @ n ",
"' Y ] e.2.] | e.i : O O > > o - + : Y b.N i 5 9 5 5 9 1 9 1 d %.l.N 9.v.N v.N > - # # > # & > # ",
"o.>.Y Y >.%.Q <.i < # # # # # > ; O 6 k a < , 7 5 1 5 5 5 d >.>.l.l.N l.N v.B 9 - # @ & & & # & ",
">.%.3.>.S 3.,.a 9 9 < # # > # & ; O * > , 9 e 5 1 e 5 , f | :.| N l.l.N v.M 0 9 < > & @ # & & # ",
"Y 3.>.Y 3.%.f 4 1 9 < > > & > # % & % O $ 4 9 3 5 5 6 s w.e.' w.l.B N l.M r 9 3 9 < > @ @ & & @ ",
"o.o.o.>.4.s 2 5 9 3 9 9 < & # # & & * & - : 2 5 5 , d 3.3.E | | l.N v.M r 1 9 3 9 9 < > @ & & & ",
"#.Y #.Y i 3 5 3 9 3 5 0 9 > # # & % % % % $ = 5 7 d 2.l.Y ' e.' N v.M 0 5 3 3 0 3 9 6 < > # @ & ",
"#.c.o.8 & > 9 5 3 9 5 3 9 9 < # % % % # - @ @ > d ,.2.E @.2.' w.l.M r < 6 9 5 9 9 3 9 9 3 & @ & ",
") #.u + @ > > 6 3 9 5 < 5 w 5 > % - % & & $ = 0 | 2.] E s.| G w.M 9 3 9 3 9 9 < 9 9 9 9 9 < - & ",
"w.8 + + # # - > 9 5 5 9 5 < < 5 : - % & % $ e b.:.] >.| Y w.e.Z 6 9 3 3 9 < < 9 3 3 < < 9 0 3 & ",
"6 + + : : + + : > , 9 9 1 3 1 5 r , # # @ a l.:.| ] :.{ { 9.B 9 5 < 5 5 < 9 9 < 3 9 < 3 r < , 0 ",
"; + ; ; O ; 2 o r d 9 > 0 9 < 9 , y 3 # a :.N :.:.4.{ { p.M 0 9 5 < 5 9 < < r d 9 3 9 9 < 9 9 < ",
"+ + + ; ; + + 8 N :.i < 9 9 , 9 , r 3 5 :.l.N l.:.R :.;.B 0 9 2 5 5 5 1 < 0 n :.h 0 3 0 < 9 9 3 ",
"+ 2 + + ; O 2 7.g.:.B g 5 , 9 1 3 6 5 r n N :.:.R :.9.S 9 , 9 9 5 9 1 , e n N l.{ n 3 < 0 9 < 9 ",
"$ * * + + 8 H c.l.B l.{ r 9 9 9 3 1 9 3 , n :.{ { l.M 0 9 , , 0 < 9 9 0 n :.:...{ l.n < 4 9 5 5 ",
"$ * $ + 8 H d.o.N :.3.:.M i 9 1 9 9 9 1 3 0 d :.4.B 0 , 9 9 1 9 3 9 9 g 4.9.{ :.X.X.9.n 5 3 9 < ",
"$ = + * s Y ^ #.:.l.:.4.4.M a 9 9 < < 9 0 3 3 n M 9 , 9 1 1 9 1 9 < , i <.:.N l.u.N X.4.h 7 5 5 ",
"$ + , 5 2 i | w.4.M 4.g.N l.N r < 9 9 < 3 0 9 < 9 9 9 9 9 1 < 9 3 > @ > M :.{ :.9.:.{ :.2.h q 4 ",
"$ = 1 w 2 3 i K 4.N U :.{ :.u.{ r 9 1 < 1 9 9 9 9 , 9 9 9 < 1 0 = % & % * g b.o.@.@.| ' :.7.l 0 ",
"1 1 1 1 5 2 9 y { l.:.:.9.:.N :.R i < 1 0 1 < 9 , 9 9 , 1 9 1 > # = % % ; : p f.F 2.w.| ] 7.] B ",
"5 w w 1 9 7 5 1 0 M u.{ :.9.:.:.4.K a 4 3 9 9 2 3 9 9 3 9 9 > @ & % @ % ; + * h 2.| o.@.6.:.6.7.",
"1 1 w 1 9 9 9 5 & 9 B 4.N :.l.:.K 4.Q r < 9 0 3 9 3 3 9 1 > $ @ * $ $ = % $ > q F E | >.X.:.:.( ",
"5 7 5 5 7 5 < = & @ 9 U v.:.{ { Q | &.T a 3 2 8 9 9 3 3 > @ @ & $ $ * $ $ > 4 q 5 n 4.:.U :.4.{ ",
"5 5 1 q q 5 = @ @ # @ 3 N v.X...4.T ] l.Q y 2 7 6 0 9 > % @ & & $ = + + > q < q 2 0 n :.4.:.{ 4.",
"7 1 4 5 5 > $ $ @ > # @ t N :.:.:.@.] :.:.H p 4 6 6 > # @ & & % * * + * q q 1 q r , 1 n 4.{ K :.",
"5 5 7 6 = + $ = & @ = # # 0 N p.] 7.:.R 9.c.H t 6 - # # : & # % $ + < u , 1 q 1 3 5 9 0 n { 4.R ",
"2 r 6 * - # O ; @ : $ % : @ > :.#.#.#.w.@.@.o.o.: O % : ; + + ; + q >.Y q 4 7 w 7 3 1 5 w h { %.",
"e 1 = $ @ : : O & = @ O & $ & 2 w.v p.o.S z.c.6 # % - % % - : + q Y %.4.Z 4 4 4 7 5 5 1 < r n %.",
"q % $ = $ $ ; ; @ % - = % & & + 6 o.o.o.d.#.2 + O ; O % - O + 8 z.Y >.V 3.%.7 4 3 4 9 7 1 1 r d ",
"; + % : % + ; ; % @ $ = ; + % * O 4 o.c.#.> O ; - % % ; ; O q o.>.>.>.>.~ %.K 7 3 7 1 5 9 9 1 w ",
"+ ; & O ; ; ; O s q % + ; * % * ; o 4 o.2 ; % ; - O ; ; o 8 w.#.o.o.o.>.| ~ b , 5 9 3 , 1 9 < 1 ",
"% ; % + ; + + t z.>.q % + ; % * ; + : + ; + ; + + ; O O u >.d.Y z.Y o.o.z.E = + = 4 7 5 9 9 5 9 ",
"- O % ; ; + 8 >.o.>.V q ; + + % + ; ; * o ; ; + + ; + 8 #.z.V p.V c.Y >.v = $ & $ = 9 9 9 3 9 < ",
"+ ; ; % + t >.w.o.o.z.>.q % * % % % % % ; + % : ; o 8 @.o.o.w.p.c.o.w.v > O @ = & @ = 3 < < 9 9 "
};
