/* XPM */
static char *_714_c7b68deacb09de439dffb97ee6f76bef2df11c444d1acdcc031c160b8aecef50[] = {
/* columns rows colors chars-per-pixel */
"48 48 83 1 ",
"  c #F5CD03",
". c #F6CD03",
"X c #F6CE02",
"o c #F7CE02",
"O c #F7CF02",
"+ c #F6CE03",
"@ c #F7CF03",
"# c #F8CF02",
"$ c #F9CF02",
"% c #F8CF03",
"& c #F0CD0C",
"* c #F8D000",
"= c #F9D000",
"- c #F8D001",
"; c #F9D001",
": c #F9D101",
"> c #FAD001",
", c #FAD101",
"< c #FBD101",
"1 c #FBD200",
"2 c #FAD201",
"3 c #FBD201",
"4 c #F8D002",
"5 c #F9D002",
"6 c #F8D003",
"7 c #FAD002",
"8 c #FAD102",
"9 c #FCD200",
"0 c #FCD300",
"q c #FDD300",
"w c #FCD201",
"e c #FDD201",
"r c #FCD301",
"t c #FDD301",
"y c #FED300",
"u c #FDD400",
"i c #FED400",
"p c #FFD400",
"a c #FED500",
"s c #FFD500",
"d c #FED401",
"f c #FFD401",
"g c #FFD501",
"h c #FDD403",
"j c #F9D205",
"k c #F9D305",
"l c #F7D108",
"z c #F8D008",
"x c #0359B4",
"c c #0359B5",
"v c #025AB4",
"b c #035AB4",
"n c #025AB5",
"m c #035AB5",
"M c #0259B6",
"N c #015AB6",
"B c #015AB7",
"V c #025AB6",
"C c #035AB6",
"Z c #025AB7",
"A c #005AB8",
"S c #015AB8",
"D c #005BB8",
"F c #015BB8",
"G c #005AB9",
"H c #015AB9",
"J c #005BB9",
"K c #015BB9",
"L c #025AB8",
"P c #005ABA",
"I c #015ABA",
"U c #005BBA",
"Y c #015BBA",
"T c #005ABB",
"R c #005BBB",
"E c #025BBB",
"W c #025CB9",
"Q c #035CBA",
"! c #045DBA",
"~ c #055EBB",
"^ c #2D78C6",
"/ c #3079C5",
"( c None",
/* pixels */
"((((((((((((((((((((((((((((((((((((((((((((((((",
"((((((((((((((((((((((EGR~((((((((((((((((((((((",
"(((((((((((((((((BKUPZBUUHBHUPZ(((((((((((((((((",
"((((((((((((((^SZPTPmZPRHbHRRVnPR(((((((((((((((",
"(((((((((((((PSMKPAZVPPSVSUUZVPTJZS(((((((((((((",
"(((((((((((RRSBJRUVZRRHVKRPVVJRGnSRRZ(((((((((((",
"((((((((((UUSCHRPVVUUHCSUPZnPRJVZRPFVI((((((((((",
"(((((((((PUSZKRPZBUUHZKRTZZPRGZSRPVVHRP(((((((((",
"((((((((RPSVYRUmVRTHbSRRZmPRGnZTRSmHRPZV((((((((",
"(((((((URSVHRPZZPPHZHRRLZURUVSUPSZHRUBZUP(((((((",
"((((((RPSZUUPCZRPHcSUPVVUPGxSPRLmHPPMVPRKV((((((",
"(((((UUSVHPPVVPPHVSPRLVPPUZBPRFVIUUBZPRKZHU(((((",
"(((((RSZYRPZBPRHZKRUZZGRGVSRRZVHRJVZURSVHUU(((((",
"((((UScKPPCVUPHxSTPZmPPUCZPRSnHPUZVURIVHPRSV((((",
"(((/SBKRUZZPRHBSPPZZPRUZSUUZZHRGZZPRSVHRPBZH((((",
"(((SMURPmZPPHmHTRZnPPUbNRRLbIUUVVURKVHURFVURR(((",
"(((VHRGZZPTHVSURZVTPUZSUPSZIPPZZPPSZHPPSZGPHZ(((",
"((BURUVBRRHVKPUVVDRGvSPTVnHRUVZPTSVSURBVHTGZSQ((",
"((KTPVVPPSCSRPZnGPUZZUPFVIRUZZURYVHURFZUUUZSRR((",
"((RPZZUUHVKUUZZPPGZSRPZVHRPVZGUSVHUUZVHUHZSURS((",
"((PmVRRHbSPRZmUPUnZPRSmITUZVPRYVHPRFVPRRZSURJV((",
"((ZZPRHZSUPLZPUGZSUUSZHUJBZUUFZSUUSZJRKZZGUSVS((",
"(WBTUHcKPUZVJPUxSTPZmHPUVZPRHVHPRLVJRPZSPRHVJP((",
"(PURHVSURZVPRUZBPPSZHUUBZPUHZHRPFZPUHZSRPKVHRU!(",
"(giw#3as-4ya0O,ss,O0sq#4iiwo3ai,Otiq-,is3Owip,&(",
"(jr 3si$.iiuO5ps,Xqsi;4ipw#0ds3#dsq:,isqOrsq1-((",
"((;3sa>;isq5,id,40su55isw%3id,4tsq*,ui3O3ii,;0((",
"((3sa4Xisq.:ss, qgi#Oisro0ss,Oiis;1ssqOqss2;ss((",
"((ag>#upu;,is340iu,5isw;3ii,4qae;,ii3O3ay,-rir((",
"((i4#uaqX,is,Xqsy#4us3X9ia,Oqiq-2iawO0ii,:uai4((",
"((5Xusq#5sa3Ousi,4iir-0su34dau:,sarOwad2-usqOl((",
"(((isq#,ii8#rsu#5ia3O3ii>#tar-,qs3O9ai,;rsq4,(((",
"(((sr+5fs< usy5Ods0O0sp<@ipa;2sptOqia1;ssiO,i(((",
"((((;,as3-qiu;5ia9*3iu,4qaq;,is3O3ii,-rgr4,i((((",
"((((,ii7 qii#4is3X9is,Oupq-1isrOqpi,:qsi%3pi((((",
"(((((s<#usq,4ipr;1si<6uau:,iiwOwau,-0a0O,ii(((((",
"(((((,O0su#4is3o3ii,Oqsq-,iswOwia,:qsu4<is1(((((",
"((((((qsi;4igt#0ia3#isi:,idqOray1-qiuO,ap0((((((",
"(((((((u55da3#3pd,4rs9-,qa3O3iy,;qa04,ui3(((((((",
"((((((((Oiaro0ss,Oiia;1saqOqas2;ssiO<as0((((((((",
"(((((((((iw;3id,4qir;,ii3O3su,-ra0#,ia3(((((((((",
"((((((((((X9ap,Oqiu-2ipwOria,:ipi43ia0((((((((((",
"(((((((((((ii34iai:,iirOwai2-qsqO,id9(((((((((((",
"(((((((((((((#tsw-,us3@wii,;rsq4,id(((((((((((((",
"(((((((((((((((s=2ssqOqas1;aaiO,a(((((((((((((((",
"(((((((((((((((((hi3@1iu,-0at4z(((((((((((((((((",
"(((((((((((((((((((((((k&(((((((((((((((((((((((",
"(((((((((((((((((((((((((((((((((((((((((((((((("
};
