/* XPM */
static char *result[] = {
/* columns rows colors chars-per-pixel */
"48 48 69 1 ",
"  c #060606",
". c #0B0B0B",
"X c #131313",
"o c #171817",
"O c #1B1C1B",
"+ c #1F201F",
"@ c #232423",
"# c #2B2D2B",
"$ c #2E302D",
"% c #30322F",
"& c #343533",
"* c #383736",
"= c #373836",
"- c #383937",
"; c #3C3D3B",
": c #4F2D2E",
"> c #3D403E",
", c #40413E",
"< c #444442",
"1 c #474946",
"2 c #484946",
"3 c #4B4D4A",
"4 c #4E524E",
"5 c #525652",
"6 c #555A55",
"7 c #575C58",
"8 c #595E59",
"9 c #5C615C",
"0 c #616361",
"q c #656B66",
"w c #676D68",
"e c #6B6F6C",
"r c #6D736E",
"t c #6E7570",
"y c #707772",
"u c #737974",
"i c #7B7F7C",
"p c #982C35",
"a c #B42B37",
"s c #B92C39",
"d c #C12F3C",
"f c #D03541",
"g c #EC3F4C",
"h c #94494D",
"j c #F0404D",
"k c #7E8277",
"l c #7D847E",
"z c #E18E29",
"x c #E3A123",
"c c #7EA9AD",
"v c #808681",
"b c #838A85",
"n c #868D89",
"m c #929693",
"M c #959E9B",
"N c #97A09D",
"B c #98A29E",
"V c #85AAAD",
"C c #8DACAE",
"Z c #A6A9A6",
"A c #A2ACAA",
"S c #A8B2AF",
"D c #F4DD93",
"F c #BEC5C3",
"G c #B6ECF2",
"H c #EAE3CB",
"J c #CAF1F6",
"K c gray95",
"L c None",
/* pixels */
"LLLLLLLLLLLLLLLLLLLLLLLLLLLLLLLLLLLLLLLLLLLLLLLL",
"LLLLLLLLLLLLLLLLLLLLLLLLLLLLLLLLLLLLLLLLLLLLLLLL",
"LLLLLLLLLLLLLLLLLLLLLLLLLLLLLLLLLLLLLLLLLLLLLLLL",
"LLLLLLLLLLLLLLLLLLLLLLLLLLLLLLLLLLLLLLLLLLLLLLLL",
"LLLLLLLLLLLLLLLLLLLLLLLLLLLLLLLLLLLLLLLLLLLLLLLL",
"LLLLLLLLLLLLLLLLLLLLLLLLLLLLLLLLLLLLLLLLLLLLLLLL",
"LLLLLLLLLLLLLLLLLLLLLLLLLLLLLLLLLLLLLLLLLLLLLLLL",
"LLLLLLLLLLLLLLLLLLLLLLLLLLLLLLLLLLLLLLLLLLLLLLLL",
"LLLLLLLLLLLLLLLLLLLLLLLLLLLLLLLLLLLLLLLLLLLLLLLL",
"LLLLLLLLLLLLLLLLLLLLLLLLLLLLLLLLLLLLLLLLLLLLLLLL",
"LLLLLLLLLLLLLLLLLLLLLLLLLLLLLLLLLLLLLLLLLLLLLLLL",
"LLLLLLLLLLLLLLLLLLLLLLLLLLLLLLLLLLLLLLLLLLLLLLLL",
"LLLLLLLLLLLLLLLLLLLLLLLLLLLLLLLLLLLLLLLLLLLLLLLL",
"LLLLLLLLLLLLLLLLLLLLLLLLLLLLLLLLLLLLLLLLLLLLLLLL",
"LLLLLLLLLLLLLLLLLLLLLLLLLLLLLLLLLLLLLLLLLLLLLLLL",
"LLLLLLLLLLLLLLLLLLLLLLLLLLLLLLLLLLLLLLLLLLLLLLLL",
"LLLLLLLLLLLLLLLLLLLLLLLLLLLLLLLLLLLLLLLLLLLLLLLL",
"LLLLLLLLLLLLLLLLLLLLLLLLLLLLLLLLLLLLLLLLLLLLLLLL",
"LLLLLLLLLLLLLLLLLLLLLLLLLLLLL#LLLLLLLLLLLLLLLLLL",
"LLLLLLLLLLLLLLLLLLLLLLL&LLjh:jb3rOLLLLLLLLLLLLLL",
"LLLLLLLLLLLLLLLLLLLLLLLO9=<;djfyr4<89LLLLLLLLLLL",
"LLLLLLLLLLLLLLLLLLLLLLL4<<:-ajp6<==wrkLLLLLLLLLL",
"LLLLLLLLLLLLLLLLLLLLLLLt6=r&2g,&##&<19LLLLLLLLLL",
"LLLLLLLLLLLLLLFLLLLLLLLtt&y%@3. O+X.&LLLLLLLLLLL",
"LLLLLLLLLLLLcDHn1t<,LL,95511.6j9:r4l59LLLLLLLLLL",
"LLLLLLLLLLL1>hCr<44,<7 <3t$1X#j<c=3r15LLLLLLLLLL",
"LLLLLLLLLLLcctcc,<;=3<>OX>% >=j1rA+m#5LLLLLLLLLL",
"LLLLLLLLLL9GGccc,+#=3<7<%<&9&.s+$#&#$@LLLLLLLLLL",
"LLLLLLLLLL<GGccc=54&--5,9<=-= aX+O. LLLLLLLLLLLL",
"LLLLLLLLLLCGJtnc#0<36@=31y#o 6l>9>>+6&LLLLLLLLLL",
"LLLLLLLLLLn474cM#n$47#=s=1<     o=>133LLLLLLLLLL",
"LLLLLLLLLN47991nt9-46 ;z%<-  .+<:-#2@;LLLLLLLLLL",
"LLLLLLLLL3m>676=OO$565$$#+=O<5&  $&5<,LLLLLLLLLL",
"LLLLLLLLL,@SKs,=#<=460 $;=3>3.o;4;86O4LLLLLLLLLL",
"LLLLLLLLL>%12x2%4&;4565% k<;<<<<<;4 O<LLLLLLLLLL",
"LLLLLLLLL3y,,6,=4q;#66>>qB<9<1><<<%X<LLLLLLLLLLL",
"LLLLLLLLO29y,y-&7595o=O 6c& <<><<LLLLLLLLLLLLLLL",
"LLLLLLLLLky2nq,%6>>&#==<#  *,3=13LLLLLLLLLLLLLLL",
"LLLLLLLLL0r*v29-5&%#-<#=$LLo:11#OLLLLLLLLLLLLLLL",
"LLLLLLLLLLO#y6,-6& $>= ;*LL .=3oLLLLLLLLLLLLLLLL",
"LLLLLLLLLLLL+X &##3@;&+<-LLL  LLLLLLLLLLLLLLLLLL",
"LLLLLLLLLLLLLLO$&X;&<=O>LLLLLLLLLLLLLLLLLLLLLLLL",
"LLLLLLLLLLLLLLLL ,OO&1+>LLLLLLLLLLLLLLLLLLLLLLLL",
"LLLLLLLLLLLLLLLLLL#L=:<>LLLLLLLLLLLLLLLLLLLLLLLL",
"LLLLLLLLLLLLLLLLLLLL@;<LLLLLLLLLLLLLLLLLLLLLLLLL",
"LLLLLLLLLLLLLLLLLLLLLX,LLLLLLLLLLLLLLLLLLLLLLLLL",
"LLLLLLLLLLLLLLLLLLLLLLLLLLLLLLLLLLLLLLLLLLLLLLLL",
"LLLLLLLLLLLLLLLLLLLLLLLLLLLLLLLLLLLLLLLLLLLLLLLL"
};
