/* XPM */
static char *ea13c9ae22274c19bd2ddac81507d0a7768IavY98F0UXRus[] = {
/* columns rows colors chars-per-pixel */
"53 41 165 2 ",
"   c None",
".  c #040505",
"X  c #060806",
"o  c #080907",
"O  c #060708",
"+  c #070809",
"@  c #0B0C0C",
"#  c #0F100D",
"$  c #10120F",
"%  c #0E0F10",
"&  c #0F1011",
"*  c #131413",
"=  c #161915",
"-  c #191C16",
";  c #151718",
":  c #171819",
">  c #1B1C1B",
",  c #1D2017",
"<  c #1E211B",
"1  c #22251D",
"2  c #262B1E",
"3  c #282D1E",
"4  c #2D331E",
"5  c #1E1F21",
"6  c #1F2021",
"7  c #232424",
"8  c #262923",
"9  c #292C24",
"0  c #252629",
"q  c #27282A",
"w  c #2A2B2C",
"e  c #2D3423",
"r  c #2E312A",
"t  c #313625",
"y  c #343B26",
"u  c #393F26",
"i  c #33352C",
"p  c #353C2B",
"a  c #393E2B",
"s  c #2E2F31",
"d  c #2F3131",
"f  c #333434",
"g  c #363A32",
"h  c #393D33",
"j  c #353639",
"k  c #39373C",
"l  c #37383A",
"z  c #3A3B3B",
"x  c #562E0D",
"c  c #374226",
"v  c #3B4326",
"b  c #3F4A25",
"n  c #3C432B",
"m  c #3D4333",
"M  c #3F4836",
"N  c #3E433B",
"B  c #414726",
"V  c #434927",
"C  c #41462A",
"Z  c #434B2B",
"A  c #484F2D",
"S  c #46522D",
"D  c #49512E",
"F  c #414435",
"G  c #434B35",
"H  c #484C35",
"J  c #41443B",
"K  c #454B3C",
"L  c #494D3D",
"P  c #4A5333",
"I  c #4C533B",
"U  c #505536",
"Y  c #515835",
"T  c #545C3B",
"R  c #7D543C",
"E  c #403F40",
"W  c #3F4044",
"Q  c #36424D",
"!  c #3B404F",
"~  c #424343",
"^  c #474B47",
"/  c #4A4D44",
"(  c #444549",
")  c #46494C",
"_  c #4C4D4C",
"`  c #4B5242",
"'  c #4C5243",
"]  c #4F5242",
"[  c #4E5244",
"{  c #4D5344",
"}  c #4C5243",
"|  c #4C504A",
" . c #4F5548",
".. c #4F514D",
"X. c #505344",
"o. c #505647",
"O. c #515445",
"+. c #525B43",
"@. c #575B45",
"#. c #52574A",
"$. c #525749",
"%. c #53564F",
"&. c #515649",
"*. c #52594A",
"=. c #555849",
"-. c #545A4C",
";. c #575B4D",
":. c #575C4F",
">. c #555A4C",
",. c #5B5D4E",
"<. c #595D4C",
"1. c #4F5255",
"2. c #515352",
"3. c #565C50",
"4. c #5B5E53",
"5. c #545659",
"6. c #525F5A",
"7. c #5C5F59",
"8. c #5E5F59",
"9. c #5F6444",
"0. c #5D6344",
"q. c #5F624E",
"w. c #5B6052",
"e. c #5F6453",
"r. c #5D6253",
"t. c #5C6A5F",
"y. c #656B4D",
"u. c #616556",
"i. c #64675F",
"p. c #626659",
"a. c #666A5B",
"s. c #64685E",
"d. c #65695B",
"f. c #696D5E",
"g. c #6A705F",
"h. c #6B705E",
"j. c #767B5C",
"k. c #475461",
"l. c #5C5D63",
"z. c #5D6060",
"x. c #636366",
"c. c #616D62",
"v. c #676C61",
"b. c #6B6F60",
"n. c #6B6E61",
"m. c #6A6B6C",
"M. c #6D7162",
"N. c #717466",
"B. c #74766A",
"V. c #72746B",
"C. c #74786A",
"Z. c #797D6F",
"A. c #707071",
"S. c #747570",
"D. c #787D70",
"F. c #7A7E71",
"G. c #868D77",
"H. c #868A79",
"J. c #838386",
"K. c #879081",
"L. c #919294",
"P. c #9B9D94",
"I. c #B3B5B2",
"U. c #B5B6B4",
"Y. c #C8C9CA",
/* pixels */
"                            { I                                                                           ",
"                          a p p m i.    K M M                                                             ",
"                          P t e e m   i.p r y M                                                           ",
"                        / c.p y e y w p c t r p                                                           ",
"                      = K K K 2 e e G * K u y y                                                           ",
"                    D.h _ 7 # e e K 1 @ ; p e t                                                           ",
"                  ^ K *.+.m M K N 1 @ # # @ -                                                             ",
"                  e *.h C u n n m # @ @ @ @ M a m c                                                       ",
"                h., N :.P t u y G + % + @ , c p p m                                                       ",
"              i O._ 9 { t.m p u M @ @ + @ > M m p y t                                                     ",
"              h %.;.e #.g K n a I + O @ & , w.M p p m                                                     ",
"            = 1 7 ] > h w i t m @ + @ # & w < m n m                                                       ",
"          B.w.J h -.z 1 i 9 ~ . O = # * = 1 1 z _                                                         ",
"        9 ,.` f.[ G r i = > . . @ . * 8 > - h #.                                                          ",
"        e. .< =.< = i e p @ o . # & & - 1 m p e e e 9 # 9                 7.                              ",
"      a.;.r 8 ..i * > > r * @ O # 7 : - M y e e e 2 n t t               r I.                              ",
"    P.$.f i m p i 8 8 t 1 $ @ @ 6 = 1 m t t e e e p p p t t             ..*         A.                    ",
"    ,.< = < h = 8 8 9 2 1 w ; . & , 2 p t e t e t t y 2 4 y   K K G I 9.Y Y G.j.R H.P Z K.                ",
"  r.[ p.*.F i 9 o N 1 @ 9 * - 1 9 : / e e p e e G e 4 1 t t G G ` K t j w r e u p c n c c a m Z 4         ",
"    8 e.K e r & ; * o @ @ * $ = * & % t e e e e n e e 1 4 p K K K p t q 0 7 7 7 7 q h > > > > 5 7         ",
"    4.[ i i * * * * 2.o o @ @ N # , . O d @ e w e 2 e 9 4 t } ) k s n 8 0 7 w 7 7 < c > > >       ] p.    ",
"  a.*.9 t @ & :   o > O @ $ ~ # # o.e u n t 8 @ 2 8 p . w.n } 2.( 0 ~ q 0 w 7 7 7 5 e 6 : 0       c ) Q E ",
"r *.= i @ * . ( > . o & @ h f     w.t e e e y e.e.c a y e.f } 5.~ > 8 w 0 w 7 w 0 0 c 7 m.m.L.    n 1.! j ",
"J N z < o . + @ o 7 0 % 8               * = : p.p.J ` p.p.f [ 8.) @ h n n m K x.J ^ B _ S.l.J.    } 5.; > ",
"  = r z k     @ J @ % z   r.a.a.f.f.a.,.@ @ @ f.v.f.d.X.d.h O./ ` ` h c u Z V V V A G P Y S T D D P 1.    ",
"    _     ~ 9   o @ z   * a.a.$ # @ @ # @ l s N.h.M.N.$.f.p -.#.#.{ ;.#.c y v a n c Z Z v Y D D B v n 0.  ",
"          f.p.f.=.,.+ + . . o o X 1 q X o E 7 M.p.X.L 9 h.g = O. .i ` s.u v v y u b Z P 0.Z T V b c b T   ",
"  p.O.p.a.f.a.f.u.d.@ = * = $ $ * _ % k.q 8 j C.h J z - N.g -.#.} [ K M.c y u v p C b D y.V b v Z c v P   ",
"  u./ e.p.n.f.f.d.1 = 4.X.F p t 3 t p F ) * M.o f.N.n.M.p.. ;.$.#.O.] x a V 1 * < 1 C V Y A 1 2 1 , P     ",
"  @ 5 . * b.f.f.f., 1 1 > . $ $ y y y v ~ @ * * B.D.C.B.U.. ;.;.#.-.p.v.C H u T c Z Z C v S V Z V n Z     ",
"  o f j j s.a.M.F.9 1 7 l * w f L 2 9 $ E -   2.i 9 z 0 e.C.4.~ w e d.a c c c u v v n v b n b Z b v u t   ",
"  w r l j p.f.f.= * + j j * j E :.1 - 1 w u.Y.e.* s > > q M.. 1 f.d.#.V.- f . v D V v C n b Z v Z z.= =.  ",
"  f i j f * * w.; * @ N K f f e.w * @ @ % j q 4.* 5 : q : n.. 1 f.n.$.U.o j o K K K F K K K / L ] i N <.  ",
"  j j k j ; ;   ;.* ; N h 7 8 z 7 & @ % @ 0 : ;.k - g m f p.f.f.d.f.J h F F N m m F m K m K L L L K F     ",
"    7 j s > o   :.    z 9 * f * 7 ; * z @ ; + %.7 7 & 7 < > & O & f v.F m F m N F h K L 8.      @         ",
"        > *           k f * l t > % :       7 ; 6 > r i N 0 0 : * * $ * @ F p f , + % 7                   ",
"                      ~ q % s l ; % >       z % 7 7 = > ; 6 * 4.h       > @ @ . @ @ * s                   ",
"                        * @ 7 s + %             6 > r z j > % >           * & & > & > i                   ",
"                                                  > 0 s 1 * 5 *           * % & & ; >                     ",
"                                                  5 ; : ; ; %                 % ; %                       ",
"                                                      ; > >                                               "
};
